<svg width="1920" height="1080" viewBox="0 0 1920 1080" fill="none" xmlns="http://www.w3.org/2000/svg">
<g clip-path="url(#clip0_197_86)">
<rect width="1920" height="1080" fill="black"/>
<g clip-path="url(#clip1_197_86)">
<path d="M231.729 289.168L195.469 287.402C193.384 287.3 191.422 288.256 190.219 289.958C189.016 291.661 188.81 293.774 189.667 295.612L203.866 326.038C204.719 327.867 206.464 329.067 208.531 329.244C209.611 329.337 210.67 329.143 211.615 328.702C212.499 328.288 213.27 327.668 213.859 326.899L235.921 298.24C236.564 297.405 236.969 296.423 237.093 295.396C237.217 294.37 237.056 293.338 236.627 292.409C236.198 291.479 235.516 290.687 234.654 290.117C233.792 289.546 232.781 289.218 231.729 289.168ZM209.798 318.609L199.187 295.869L226.286 297.189L209.798 318.609Z" fill="#FFC000"/>
<path d="M267.149 248.647L267.116 248.592C266.527 247.622 261.176 239.052 254.435 236.569C246.599 233.604 240.283 235.747 237.246 236.779C237.017 236.858 236.787 236.934 236.557 237.009L236.316 237.093C218.334 243.998 191.959 256.103 191.695 256.224L191.672 256.234L191.649 256.246C191.386 256.37 165.167 268.808 148.167 278.227L147.946 278.358C147.77 278.47 147.575 278.588 147.362 278.718C144.655 280.368 139.02 283.803 136.335 291.916C134.103 298.527 136.991 308.009 137.328 309.069L137.374 309.206C137.533 309.649 141.326 320.205 146.068 330.366L150.501 339.865C155.242 350.026 160.895 359.714 161.133 360.122L161.17 360.182C161.751 361.136 167.023 369.54 173.744 372.035C181.179 374.965 187.803 372.72 191.366 371.513C191.929 371.322 192.414 371.157 192.753 371.064L193.077 370.962C203.561 367.193 235.295 352.937 236.64 352.332L236.681 352.314L236.72 352.295C236.983 352.171 263.201 339.733 280.045 330.388L280.264 330.257C280.471 330.126 280.707 329.986 280.965 329.832C283.669 328.216 289.299 324.855 291.946 316.852C294.178 310.241 291.291 300.757 290.953 299.699L290.908 299.562C290.748 299.118 286.956 288.563 282.214 278.402L277.782 268.903C273.039 258.742 267.387 249.055 267.149 248.647ZM274.495 282.004C278.883 291.409 282.551 301.492 282.885 302.419C283.701 305.021 284.995 311.269 283.908 314.49C282.251 319.499 279.042 321.416 276.699 322.815C276.438 322.97 276.177 323.127 275.919 323.287C259.625 332.32 234.405 344.308 233.242 344.859C231.926 345.451 200.651 359.487 190.497 363.163C189.961 363.318 189.393 363.509 188.795 363.713C185.762 364.74 181.609 366.147 177.07 364.345L176.964 364.305C173.895 363.182 170.146 358.523 168.491 355.835C168.117 355.192 162.669 345.8 158.219 336.263L153.787 326.764C149.403 317.37 145.738 307.298 145.397 306.352C144.442 303.285 143.332 297.366 144.374 294.278C146.082 289.117 149.461 287.057 151.696 285.694C151.909 285.564 152.108 285.443 152.291 285.328C168.828 276.175 194.232 264.107 195.143 263.673C196.06 263.252 221.619 251.54 239.105 244.817C239.325 244.745 239.564 244.664 239.821 244.577C242.37 243.712 246.223 242.405 251.2 244.293L251.245 244.31C254.315 245.433 258.107 250.184 259.788 252.929C260.142 253.536 265.602 262.948 270.062 272.505L274.495 282.004Z" fill="#FFC000"/>
</g>
<g clip-path="url(#clip2_197_86)">
<path d="M590.913 208.665L554.654 206.9C552.569 206.798 550.607 207.754 549.404 209.456C548.2 211.159 547.994 213.272 548.852 215.11L563.05 245.536C563.904 247.365 565.648 248.564 567.716 248.742C568.796 248.835 569.854 248.641 570.8 248.2C571.684 247.786 572.455 247.166 573.044 246.397L595.106 217.737C595.749 216.903 596.154 215.92 596.278 214.894C596.402 213.868 596.241 212.835 595.811 211.906C595.382 210.977 594.701 210.185 593.839 209.614C592.976 209.044 591.966 208.716 590.913 208.665ZM568.983 238.106L558.371 215.367L585.471 216.687L568.983 238.106Z" fill="#FFC000"/>
<path d="M626.333 168.145L626.3 168.09C625.712 167.12 620.361 158.55 613.619 156.067C605.783 153.102 599.467 155.245 596.431 156.277C596.202 156.355 595.972 156.432 595.741 156.506L595.5 156.591C577.519 163.496 551.144 175.6 550.88 175.722L550.857 175.732L550.834 175.744C550.571 175.868 524.352 188.306 507.352 197.725L507.131 197.856C506.955 197.967 506.759 198.086 506.547 198.216C503.839 199.866 498.205 203.301 495.52 211.414C493.288 218.025 496.176 227.507 496.513 228.567L496.558 228.704C496.717 229.147 500.511 239.703 505.253 249.864L509.685 259.363C514.427 269.524 520.08 279.212 520.318 279.62L520.355 279.68C520.935 280.633 526.208 289.038 532.929 291.533C540.364 294.462 546.988 292.218 550.551 291.011C551.114 290.82 551.598 290.655 551.938 290.562L552.261 290.46C562.745 286.691 594.48 272.435 595.825 271.83L595.865 271.812L595.905 271.792C596.168 271.669 622.386 259.231 639.229 249.885L639.449 249.755C639.656 249.624 639.891 249.484 640.15 249.33C642.854 247.714 648.483 244.353 651.13 236.35C653.362 229.738 650.475 220.255 650.138 219.197L650.092 219.06C649.933 218.616 646.141 208.061 641.399 197.899L636.966 188.401C632.224 178.24 626.572 168.553 626.333 168.145ZM633.679 201.502C638.068 210.907 641.736 220.99 642.07 221.917C642.886 224.519 644.18 230.767 643.092 233.988C641.435 238.997 638.227 240.914 635.884 242.313C635.622 242.468 635.362 242.625 635.104 242.785C618.809 251.818 593.589 263.806 592.427 264.357C591.111 264.948 559.836 278.985 549.682 282.661C549.145 282.815 548.578 283.007 547.98 283.211C544.946 284.238 540.794 285.645 536.255 283.843L536.149 283.803C533.079 282.68 529.331 278.021 527.676 275.333C527.301 274.69 521.854 265.297 517.404 255.761L512.971 246.262C508.588 236.868 504.923 226.796 504.582 225.85C503.627 222.783 502.516 216.864 503.558 213.776C505.266 208.615 508.646 206.555 510.881 205.192C511.094 205.062 511.293 204.941 511.476 204.826C528.012 195.672 553.416 183.604 554.328 183.171C555.245 182.75 580.804 171.038 598.29 164.314C598.51 164.243 598.749 164.162 599.005 164.075C601.554 163.21 605.407 161.903 610.384 163.79L610.43 163.808C613.5 164.931 617.291 169.682 618.972 172.427C619.327 173.034 624.787 182.446 629.247 192.003L633.679 201.502Z" fill="#FFC000"/>
</g>
<g clip-path="url(#clip3_197_86)">
<path d="M407.913 530.665L371.654 528.9C369.569 528.798 367.607 529.754 366.404 531.456C365.2 533.159 364.994 535.272 365.852 537.11L380.05 567.536C380.904 569.365 382.648 570.564 384.716 570.742C385.796 570.835 386.854 570.641 387.8 570.2C388.684 569.786 389.455 569.166 390.044 568.397L412.106 539.737C412.749 538.903 413.154 537.92 413.278 536.894C413.402 535.868 413.241 534.835 412.811 533.906C412.382 532.977 411.701 532.185 410.839 531.614C409.976 531.044 408.966 530.716 407.913 530.665ZM385.983 560.106L375.371 537.367L402.471 538.687L385.983 560.106Z" fill="#FFC000"/>
<path d="M443.333 490.145L443.3 490.09C442.712 489.12 437.361 480.55 430.619 478.067C422.783 475.102 416.467 477.245 413.431 478.277C413.202 478.355 412.972 478.432 412.741 478.506L412.5 478.591C394.519 485.496 368.144 497.6 367.88 497.722L367.857 497.732L367.834 497.744C367.571 497.868 341.352 510.306 324.352 519.725L324.131 519.856C323.955 519.967 323.759 520.086 323.547 520.216C320.839 521.866 315.205 525.301 312.52 533.414C310.288 540.025 313.176 549.507 313.513 550.567L313.558 550.704C313.717 551.147 317.511 561.703 322.253 571.864L326.685 581.363C331.427 591.524 337.08 601.212 337.318 601.62L337.355 601.68C337.935 602.633 343.208 611.038 349.929 613.533C357.364 616.462 363.988 614.218 367.551 613.011C368.114 612.82 368.598 612.655 368.938 612.562L369.261 612.46C379.745 608.691 411.48 594.435 412.825 593.83L412.865 593.812L412.905 593.792C413.168 593.669 439.386 581.231 456.229 571.885L456.449 571.755C456.656 571.624 456.891 571.484 457.15 571.33C459.854 569.714 465.483 566.353 468.13 558.35C470.362 551.738 467.475 542.255 467.138 541.197L467.092 541.06C466.933 540.616 463.141 530.061 458.399 519.899L453.966 510.401C449.224 500.24 443.572 490.553 443.333 490.145ZM450.679 523.502C455.068 532.907 458.736 542.99 459.07 543.917C459.886 546.519 461.18 552.767 460.092 555.988C458.435 560.997 455.227 562.914 452.884 564.313C452.622 564.468 452.362 564.625 452.104 564.785C435.809 573.818 410.589 585.806 409.427 586.357C408.111 586.948 376.836 600.985 366.682 604.661C366.145 604.815 365.578 605.007 364.98 605.211C361.946 606.238 357.794 607.645 353.255 605.843L353.149 605.803C350.079 604.68 346.331 600.021 344.676 597.333C344.301 596.69 338.854 587.297 334.404 577.761L329.971 568.262C325.588 558.868 321.923 548.796 321.582 547.85C320.627 544.783 319.516 538.864 320.558 535.776C322.266 530.615 325.646 528.555 327.881 527.192C328.094 527.062 328.293 526.941 328.476 526.826C345.012 517.672 370.416 505.604 371.328 505.171C372.245 504.75 397.804 493.038 415.29 486.314C415.51 486.243 415.749 486.162 416.005 486.075C418.554 485.21 422.407 483.903 427.384 485.79L427.43 485.808C430.5 486.931 434.291 491.682 435.972 494.427C436.327 495.034 441.787 504.446 446.247 514.003L450.679 523.502Z" fill="#FFC000"/>
</g>
<g clip-path="url(#clip4_197_86)">
<path d="M13.9132 612.665L-22.346 610.9C-24.431 610.798 -26.3931 611.754 -27.5961 613.456C-28.7997 615.159 -29.0057 617.272 -28.1479 619.11L-13.9499 649.536C-13.0961 651.365 -11.3518 652.564 -9.28391 652.742C-8.2043 652.835 -7.14582 652.641 -6.20016 652.2C-5.31593 651.786 -4.54488 651.166 -3.95644 650.397L18.1061 621.737C18.7488 620.903 19.1536 619.92 19.2778 618.894C19.4019 617.868 19.2408 616.835 18.8114 615.906C18.3823 614.977 17.7007 614.185 16.8385 613.614C15.9762 613.044 14.9655 612.716 13.9132 612.665ZM-8.01738 642.106L-18.6287 619.367L8.47111 620.687L-8.01738 642.106Z" fill="#FFC000"/>
<path d="M49.3332 572.145L49.3002 572.09C48.7118 571.12 43.3606 562.55 36.6192 560.067C28.7832 557.102 22.4674 559.245 19.4307 560.277C19.2016 560.355 18.9717 560.432 18.7412 560.506L18.5002 560.591C0.518485 567.496 -25.8563 579.6 -26.1199 579.722L-26.1435 579.732L-26.1662 579.744C-26.4289 579.868 -52.6481 592.306 -69.6482 601.725L-69.8695 601.856C-70.0451 601.967 -70.2408 602.086 -70.4531 602.216C-73.1607 603.866 -78.7949 607.301 -81.4799 615.414C-83.7121 622.025 -80.8241 631.507 -80.4874 632.567L-80.4418 632.704C-80.2827 633.147 -76.4889 643.703 -71.7473 653.864L-67.3148 663.363C-62.573 673.524 -56.9205 683.212 -56.6822 683.62L-56.6455 683.68C-56.0648 684.633 -50.7922 693.038 -44.0711 695.533C-36.6365 698.462 -30.0125 696.218 -26.4495 695.011C-25.8863 694.82 -25.4016 694.655 -25.0624 694.562L-24.7388 694.46C-14.2546 690.691 17.4795 676.435 18.8246 675.83L18.8654 675.812L18.9051 675.792C19.1678 675.669 45.386 663.231 62.2294 653.885L62.4486 653.755C62.6556 653.624 62.8912 653.484 63.1496 653.33C65.854 651.714 71.4831 648.353 74.1303 640.35C76.3623 633.738 73.4752 624.255 73.1379 623.197L73.0923 623.06C72.9328 622.616 69.1405 612.061 64.3989 601.899L59.9664 592.401C55.2236 582.24 49.5715 572.553 49.3332 572.145ZM56.6793 605.502C61.068 614.907 64.7358 624.99 65.0701 625.917C65.8857 628.519 67.1795 634.767 66.0923 637.988C64.4352 642.997 61.2269 644.914 58.8839 646.313C58.6222 646.468 58.3621 646.625 58.1035 646.785C41.8092 655.818 16.5892 667.806 15.4268 668.357C14.1109 668.948 -17.1642 682.985 -27.3186 686.661C-27.8548 686.815 -28.4225 687.007 -29.02 687.211C-32.0537 688.238 -36.2064 689.645 -40.7452 687.843L-40.8511 687.803C-43.9206 686.68 -47.6692 682.021 -49.3239 679.333C-49.6987 678.69 -55.146 669.297 -59.5962 659.761L-64.0287 650.262C-68.4124 640.868 -72.0771 630.796 -72.4182 629.85C-73.3735 626.783 -74.4837 620.864 -73.4417 617.776C-71.7336 612.615 -68.3544 610.555 -66.1194 609.192C-65.9061 609.062 -65.707 608.941 -65.5243 608.826C-48.9877 599.672 -23.5836 587.604 -22.6722 587.171C-21.755 586.75 3.80413 575.038 21.29 568.314C21.5096 568.243 21.7485 568.162 22.0053 568.075C24.5544 567.21 28.4072 565.903 33.3842 567.79L33.43 567.808C36.4997 568.931 40.2913 573.682 41.9724 576.427C42.3268 577.034 47.7871 586.446 52.2468 596.003L56.6793 605.502Z" fill="#FFC000"/>
</g>
<g clip-path="url(#clip5_197_86)">
<path d="M204.913 868.665L168.654 866.9C166.569 866.798 164.607 867.754 163.404 869.456C162.2 871.159 161.994 873.272 162.852 875.11L177.05 905.536C177.904 907.365 179.648 908.564 181.716 908.742C182.796 908.835 183.854 908.641 184.8 908.2C185.684 907.786 186.455 907.166 187.044 906.397L209.106 877.737C209.749 876.903 210.154 875.92 210.278 874.894C210.402 873.868 210.241 872.835 209.811 871.906C209.382 870.977 208.701 870.185 207.839 869.614C206.976 869.044 205.966 868.716 204.913 868.665ZM182.983 898.106L172.371 875.367L199.471 876.687L182.983 898.106Z" fill="#FFC000"/>
<path d="M240.333 828.145L240.3 828.09C239.712 827.12 234.361 818.55 227.619 816.067C219.783 813.102 213.467 815.245 210.431 816.277C210.202 816.355 209.972 816.432 209.741 816.506L209.5 816.591C191.518 823.496 165.144 835.6 164.88 835.722L164.856 835.732L164.834 835.744C164.571 835.868 138.352 848.306 121.352 857.725L121.131 857.856C120.955 857.967 120.759 858.086 120.547 858.216C117.839 859.866 112.205 863.301 109.52 871.414C107.288 878.025 110.176 887.507 110.513 888.567L110.558 888.704C110.717 889.147 114.511 899.703 119.253 909.864L123.685 919.363C128.427 929.524 134.08 939.212 134.318 939.62L134.354 939.68C134.935 940.633 140.208 949.038 146.929 951.533C154.363 954.462 160.988 952.218 164.551 951.011C165.114 950.82 165.598 950.655 165.938 950.562L166.261 950.46C176.745 946.691 208.479 932.435 209.825 931.83L209.865 931.812L209.905 931.792C210.168 931.669 236.386 919.231 253.229 909.885L253.449 909.755C253.656 909.624 253.891 909.484 254.15 909.33C256.854 907.714 262.483 904.353 265.13 896.35C267.362 889.738 264.475 880.255 264.138 879.197L264.092 879.06C263.933 878.616 260.141 868.061 255.399 857.899L250.966 848.401C246.224 838.24 240.571 828.553 240.333 828.145ZM247.679 861.502C252.068 870.907 255.736 880.99 256.07 881.917C256.886 884.519 258.179 890.767 257.092 893.988C255.435 898.997 252.227 900.914 249.884 902.313C249.622 902.468 249.362 902.625 249.103 902.785C232.809 911.818 207.589 923.806 206.427 924.357C205.111 924.948 173.836 938.985 163.681 942.661C163.145 942.815 162.577 943.007 161.98 943.211C158.946 944.238 154.794 945.645 150.255 943.843L150.149 943.803C147.079 942.68 143.331 938.021 141.676 935.333C141.301 934.69 135.854 925.297 131.404 915.761L126.971 906.262C122.588 896.868 118.923 886.796 118.582 885.85C117.626 882.783 116.516 876.864 117.558 873.776C119.266 868.615 122.646 866.555 124.881 865.192C125.094 865.062 125.293 864.941 125.476 864.826C142.012 855.672 167.416 843.604 168.328 843.171C169.245 842.75 194.804 831.038 212.29 824.314C212.51 824.243 212.748 824.162 213.005 824.075C215.554 823.21 219.407 821.903 224.384 823.79L224.43 823.808C227.5 824.931 231.291 829.682 232.972 832.427C233.327 833.034 238.787 842.446 243.247 852.003L247.679 861.502Z" fill="#FFC000"/>
</g>
<g clip-path="url(#clip6_197_86)">
<path d="M393.913 2.66531L357.654 0.899572C355.569 0.797955 353.607 1.75372 352.404 3.45544C351.2 5.15863 350.994 7.27159 351.852 9.10975L366.05 39.5357C366.904 41.3652 368.648 42.5644 370.716 42.7422C371.796 42.835 372.854 42.6408 373.8 42.1996C374.684 41.7854 375.455 41.1658 376.044 40.3965L398.106 11.7372C398.749 10.9026 399.154 9.92019 399.278 8.89385C399.402 7.86751 399.241 6.83531 398.811 5.90625C398.382 4.9767 397.701 4.1848 396.839 3.6143C395.976 3.0438 394.966 2.71592 393.913 2.66531ZM371.983 32.1063L361.371 9.36649L388.471 10.6865L371.983 32.1063Z" fill="#FFC000"/>
<path d="M429.333 -37.8549L429.3 -37.9101C428.712 -38.8798 423.361 -47.4498 416.619 -49.9333C408.783 -52.8977 402.467 -50.7548 399.431 -49.7233C399.202 -49.6447 398.972 -49.5681 398.741 -49.4937L398.5 -49.4093C380.519 -42.5043 354.144 -30.3996 353.88 -30.2778L353.857 -30.268L353.834 -30.2562C353.571 -30.1324 327.352 -17.6945 310.352 -8.27549L310.131 -8.14416C309.955 -8.03259 309.759 -7.91412 309.547 -7.78427C306.839 -6.13431 301.205 -2.69932 298.52 5.4138C296.288 12.0246 299.176 21.5071 299.513 22.567L299.558 22.7036C299.717 23.1472 303.511 33.7027 308.253 43.8639L312.685 53.3626C317.427 63.524 323.08 73.2118 323.318 73.6197L323.355 73.6801C323.935 74.6334 329.208 83.0375 335.929 85.5326C343.364 88.4625 349.988 86.2183 353.551 85.0109C354.114 84.82 354.598 84.6551 354.938 84.5617L355.261 84.4602C365.745 80.6907 397.48 66.435 398.825 65.83L398.865 65.8122L398.905 65.7924C399.168 65.6686 425.386 53.2312 442.229 43.8853L442.449 43.755C442.656 43.6239 442.891 43.4835 443.15 43.3297C445.854 41.7139 451.483 38.3525 454.13 30.3497C456.362 23.7384 453.475 14.2552 453.138 13.1968L453.092 13.0601C452.933 12.6156 449.141 2.06061 444.399 -8.10058L439.966 -17.5993C435.224 -27.7603 429.572 -37.4471 429.333 -37.8549ZM436.679 -4.49829C441.068 4.90671 444.736 14.99 445.07 15.9166C445.886 18.519 447.18 24.767 446.092 27.9883C444.435 32.9966 441.227 34.9137 438.884 36.3125C438.622 36.4676 438.362 36.6251 438.104 36.7851C421.809 45.818 396.589 57.8059 395.427 58.3568C394.111 58.9485 362.836 72.9848 352.682 76.6608C352.145 76.8154 351.578 77.0072 350.98 77.2105C347.946 78.2382 343.794 79.6453 339.255 77.8432L339.149 77.8029C336.079 76.6795 332.331 72.0212 330.676 69.333C330.301 68.6897 324.854 59.2974 320.404 49.7608L315.971 40.2621C311.588 30.868 307.923 20.796 307.582 19.8501C306.627 16.7825 305.516 10.8636 306.558 7.7755C308.266 2.61478 311.646 0.554506 313.881 -0.808139C314.094 -0.938466 314.293 -1.05948 314.476 -1.17429C331.012 -10.3275 356.416 -22.3956 357.328 -22.8291C358.245 -23.2501 383.804 -34.9624 401.29 -41.6855C401.51 -41.7572 401.749 -41.8382 402.005 -41.9248C404.554 -42.7901 408.407 -44.0974 413.384 -42.2096L413.43 -42.192C416.5 -41.0687 420.291 -36.3184 421.972 -33.5731C422.327 -32.9659 427.787 -23.554 432.247 -13.997L436.679 -4.49829Z" fill="#FFC000"/>
</g>
<g clip-path="url(#clip7_197_86)">
<rect width="1920" height="1080" transform="translate(1328 2)" fill="black"/>
<g clip-path="url(#clip8_197_86)">
<path d="M1559.73 291.168L1523.47 289.402C1521.38 289.3 1519.42 290.256 1518.22 291.958C1517.02 293.661 1516.81 295.774 1517.67 297.612L1531.87 328.038C1532.72 329.867 1534.46 331.067 1536.53 331.244C1537.61 331.337 1538.67 331.143 1539.62 330.702C1540.5 330.288 1541.27 329.668 1541.86 328.899L1563.92 300.24C1564.56 299.405 1564.97 298.423 1565.09 297.396C1565.22 296.37 1565.06 295.338 1564.63 294.409C1564.2 293.479 1563.52 292.687 1562.65 292.117C1561.79 291.546 1560.78 291.218 1559.73 291.168ZM1537.8 320.609L1527.19 297.869L1554.29 299.189L1537.8 320.609Z" fill="#FFC000"/>
<path d="M1595.15 250.647L1595.12 250.592C1594.53 249.622 1589.18 241.052 1582.43 238.569C1574.6 235.604 1568.28 237.747 1565.25 238.779C1565.02 238.858 1564.79 238.934 1564.56 239.009L1564.32 239.093C1546.33 245.998 1519.96 258.103 1519.7 258.224L1519.67 258.234L1519.65 258.246C1519.39 258.37 1493.17 270.808 1476.17 280.227L1475.95 280.358C1475.77 280.47 1475.57 280.588 1475.36 280.718C1472.65 282.368 1467.02 285.803 1464.34 293.916C1462.1 300.527 1464.99 310.009 1465.33 311.069L1465.37 311.206C1465.53 311.649 1469.33 322.205 1474.07 332.366L1478.5 341.865C1483.24 352.026 1488.89 361.714 1489.13 362.122L1489.17 362.182C1489.75 363.136 1495.02 371.54 1501.74 374.035C1509.18 376.965 1515.8 374.72 1519.37 373.513C1519.93 373.322 1520.41 373.157 1520.75 373.064L1521.08 372.962C1531.56 369.193 1563.29 354.937 1564.64 354.332L1564.68 354.314L1564.72 354.295C1564.98 354.171 1591.2 341.733 1608.04 332.388L1608.26 332.257C1608.47 332.126 1608.71 331.986 1608.96 331.832C1611.67 330.216 1617.3 326.855 1619.95 318.852C1622.18 312.241 1619.29 302.757 1618.95 301.699L1618.91 301.562C1618.75 301.118 1614.96 290.563 1610.21 280.402L1605.78 270.903C1601.04 260.742 1595.39 251.055 1595.15 250.647ZM1602.49 284.004C1606.88 293.409 1610.55 303.492 1610.89 304.419C1611.7 307.021 1612.99 313.269 1611.91 316.49C1610.25 321.499 1607.04 323.416 1604.7 324.815C1604.44 324.97 1604.18 325.127 1603.92 325.287C1587.62 334.32 1562.4 346.308 1561.24 346.859C1559.93 347.451 1528.65 361.487 1518.5 365.163C1517.96 365.318 1517.39 365.509 1516.8 365.713C1513.76 366.74 1509.61 368.147 1505.07 366.345L1504.96 366.305C1501.89 365.182 1498.15 360.523 1496.49 357.835C1496.12 357.192 1490.67 347.8 1486.22 338.263L1481.79 328.764C1477.4 319.37 1473.74 309.298 1473.4 308.352C1472.44 305.285 1471.33 299.366 1472.37 296.278C1474.08 291.117 1477.46 289.057 1479.7 287.694C1479.91 287.564 1480.11 287.443 1480.29 287.328C1496.83 278.175 1522.23 266.107 1523.14 265.673C1524.06 265.252 1549.62 253.54 1567.11 246.817C1567.32 246.745 1567.56 246.664 1567.82 246.577C1570.37 245.712 1574.22 244.405 1579.2 246.293L1579.25 246.31C1582.31 247.433 1586.11 252.184 1587.79 254.929C1588.14 255.536 1593.6 264.948 1598.06 274.505L1602.49 284.004Z" fill="#FFC000"/>
</g>
<g clip-path="url(#clip9_197_86)">
<path d="M1918.91 210.665L1882.65 208.9C1880.57 208.798 1878.61 209.754 1877.4 211.456C1876.2 213.159 1875.99 215.272 1876.85 217.11L1891.05 247.536C1891.9 249.365 1893.65 250.564 1895.72 250.742C1896.8 250.835 1897.85 250.641 1898.8 250.2C1899.68 249.786 1900.46 249.166 1901.04 248.397L1923.11 219.737C1923.75 218.903 1924.15 217.92 1924.28 216.894C1924.4 215.868 1924.24 214.835 1923.81 213.906C1923.38 212.977 1922.7 212.185 1921.84 211.614C1920.98 211.044 1919.97 210.716 1918.91 210.665ZM1896.98 240.106L1886.37 217.367L1913.47 218.687L1896.98 240.106Z" fill="#FFC000"/>
<path d="M1954.33 170.145L1954.3 170.09C1953.71 169.12 1948.36 160.55 1941.62 158.067C1933.78 155.102 1927.47 157.245 1924.43 158.277C1924.2 158.355 1923.97 158.432 1923.74 158.506L1923.5 158.591C1905.52 165.496 1879.14 177.6 1878.88 177.722L1878.86 177.732L1878.83 177.744C1878.57 177.868 1852.35 190.306 1835.35 199.725L1835.13 199.856C1834.95 199.967 1834.76 200.086 1834.55 200.216C1831.84 201.866 1826.21 205.301 1823.52 213.414C1821.29 220.025 1824.18 229.507 1824.51 230.567L1824.56 230.704C1824.72 231.147 1828.51 241.703 1833.25 251.864L1837.69 261.363C1842.43 271.524 1848.08 281.212 1848.32 281.62L1848.35 281.68C1848.94 282.633 1854.21 291.038 1860.93 293.533C1868.36 296.462 1874.99 294.218 1878.55 293.011C1879.11 292.82 1879.6 292.655 1879.94 292.562L1880.26 292.46C1890.75 288.691 1922.48 274.435 1923.82 273.83L1923.87 273.812L1923.91 273.792C1924.17 273.669 1950.39 261.231 1967.23 251.885L1967.45 251.755C1967.66 251.624 1967.89 251.484 1968.15 251.33C1970.85 249.714 1976.48 246.353 1979.13 238.35C1981.36 231.738 1978.48 222.255 1978.14 221.197L1978.09 221.06C1977.93 220.616 1974.14 210.061 1969.4 199.899L1964.97 190.401C1960.22 180.24 1954.57 170.553 1954.33 170.145ZM1961.68 203.502C1966.07 212.907 1969.74 222.99 1970.07 223.917C1970.89 226.519 1972.18 232.767 1971.09 235.988C1969.44 240.997 1966.23 242.914 1963.88 244.313C1963.62 244.468 1963.36 244.625 1963.1 244.785C1946.81 253.818 1921.59 265.806 1920.43 266.357C1919.11 266.948 1887.84 280.985 1877.68 284.661C1877.15 284.815 1876.58 285.007 1875.98 285.211C1872.95 286.238 1868.79 287.645 1864.25 285.843L1864.15 285.803C1861.08 284.68 1857.33 280.021 1855.68 277.333C1855.3 276.69 1849.85 267.297 1845.4 257.761L1840.97 248.262C1836.59 238.868 1832.92 228.796 1832.58 227.85C1831.63 224.783 1830.52 218.864 1831.56 215.776C1833.27 210.615 1836.65 208.555 1838.88 207.192C1839.09 207.062 1839.29 206.941 1839.48 206.826C1856.01 197.672 1881.42 185.604 1882.33 185.171C1883.25 184.75 1908.8 173.038 1926.29 166.314C1926.51 166.243 1926.75 166.162 1927.01 166.075C1929.55 165.21 1933.41 163.903 1938.38 165.79L1938.43 165.808C1941.5 166.931 1945.29 171.682 1946.97 174.427C1947.33 175.034 1952.79 184.446 1957.25 194.003L1961.68 203.502Z" fill="#FFC000"/>
</g>
<g clip-path="url(#clip10_197_86)">
<path d="M1735.91 532.665L1699.65 530.9C1697.57 530.798 1695.61 531.754 1694.4 533.456C1693.2 535.159 1692.99 537.272 1693.85 539.11L1708.05 569.536C1708.9 571.365 1710.65 572.564 1712.72 572.742C1713.8 572.835 1714.85 572.641 1715.8 572.2C1716.68 571.786 1717.46 571.166 1718.04 570.397L1740.11 541.737C1740.75 540.903 1741.15 539.92 1741.28 538.894C1741.4 537.868 1741.24 536.835 1740.81 535.906C1740.38 534.977 1739.7 534.185 1738.84 533.614C1737.98 533.044 1736.97 532.716 1735.91 532.665ZM1713.98 562.106L1703.37 539.367L1730.47 540.687L1713.98 562.106Z" fill="#FFC000"/>
<path d="M1771.33 492.145L1771.3 492.09C1770.71 491.12 1765.36 482.55 1758.62 480.067C1750.78 477.102 1744.47 479.245 1741.43 480.277C1741.2 480.355 1740.97 480.432 1740.74 480.506L1740.5 480.591C1722.52 487.496 1696.14 499.6 1695.88 499.722L1695.86 499.732L1695.83 499.744C1695.57 499.868 1669.35 512.306 1652.35 521.725L1652.13 521.856C1651.95 521.967 1651.76 522.086 1651.55 522.216C1648.84 523.866 1643.21 527.301 1640.52 535.414C1638.29 542.025 1641.18 551.507 1641.51 552.567L1641.56 552.704C1641.72 553.147 1645.51 563.703 1650.25 573.864L1654.69 583.363C1659.43 593.524 1665.08 603.212 1665.32 603.62L1665.35 603.68C1665.94 604.633 1671.21 613.038 1677.93 615.533C1685.36 618.462 1691.99 616.218 1695.55 615.011C1696.11 614.82 1696.6 614.655 1696.94 614.562L1697.26 614.46C1707.75 610.691 1739.48 596.435 1740.82 595.83L1740.87 595.812L1740.91 595.792C1741.17 595.669 1767.39 583.231 1784.23 573.885L1784.45 573.755C1784.66 573.624 1784.89 573.484 1785.15 573.33C1787.85 571.714 1793.48 568.353 1796.13 560.35C1798.36 553.738 1795.48 544.255 1795.14 543.197L1795.09 543.06C1794.93 542.616 1791.14 532.061 1786.4 521.899L1781.97 512.401C1777.22 502.24 1771.57 492.553 1771.33 492.145ZM1778.68 525.502C1783.07 534.907 1786.74 544.99 1787.07 545.917C1787.89 548.519 1789.18 554.767 1788.09 557.988C1786.44 562.997 1783.23 564.914 1780.88 566.313C1780.62 566.468 1780.36 566.625 1780.1 566.785C1763.81 575.818 1738.59 587.806 1737.43 588.357C1736.11 588.948 1704.84 602.985 1694.68 606.661C1694.15 606.815 1693.58 607.007 1692.98 607.211C1689.95 608.238 1685.79 609.645 1681.25 607.843L1681.15 607.803C1678.08 606.68 1674.33 602.021 1672.68 599.333C1672.3 598.69 1666.85 589.297 1662.4 579.761L1657.97 570.262C1653.59 560.868 1649.92 550.796 1649.58 549.85C1648.63 546.783 1647.52 540.864 1648.56 537.776C1650.27 532.615 1653.65 530.555 1655.88 529.192C1656.09 529.062 1656.29 528.941 1656.48 528.826C1673.01 519.672 1698.42 507.604 1699.33 507.171C1700.25 506.75 1725.8 495.038 1743.29 488.314C1743.51 488.243 1743.75 488.162 1744.01 488.075C1746.55 487.21 1750.41 485.903 1755.38 487.79L1755.43 487.808C1758.5 488.931 1762.29 493.682 1763.97 496.427C1764.33 497.034 1769.79 506.446 1774.25 516.003L1778.68 525.502Z" fill="#FFC000"/>
</g>
<g clip-path="url(#clip11_197_86)">
<path d="M1532.91 870.665L1496.65 868.9C1494.57 868.798 1492.61 869.754 1491.4 871.456C1490.2 873.159 1489.99 875.272 1490.85 877.11L1505.05 907.536C1505.9 909.365 1507.65 910.564 1509.72 910.742C1510.8 910.835 1511.85 910.641 1512.8 910.2C1513.68 909.786 1514.46 909.166 1515.04 908.397L1537.11 879.737C1537.75 878.903 1538.15 877.92 1538.28 876.894C1538.4 875.868 1538.24 874.835 1537.81 873.906C1537.38 872.977 1536.7 872.185 1535.84 871.614C1534.98 871.044 1533.97 870.716 1532.91 870.665ZM1510.98 900.106L1500.37 877.367L1527.47 878.687L1510.98 900.106Z" fill="#FFC000"/>
<path d="M1568.33 830.145L1568.3 830.09C1567.71 829.12 1562.36 820.55 1555.62 818.067C1547.78 815.102 1541.47 817.245 1538.43 818.277C1538.2 818.355 1537.97 818.432 1537.74 818.506L1537.5 818.591C1519.52 825.496 1493.14 837.6 1492.88 837.722L1492.86 837.732L1492.83 837.744C1492.57 837.868 1466.35 850.306 1449.35 859.725L1449.13 859.856C1448.95 859.967 1448.76 860.086 1448.55 860.216C1445.84 861.866 1440.21 865.301 1437.52 873.414C1435.29 880.025 1438.18 889.507 1438.51 890.567L1438.56 890.704C1438.72 891.147 1442.51 901.703 1447.25 911.864L1451.69 921.363C1456.43 931.524 1462.08 941.212 1462.32 941.62L1462.35 941.68C1462.94 942.633 1468.21 951.038 1474.93 953.533C1482.36 956.462 1488.99 954.218 1492.55 953.011C1493.11 952.82 1493.6 952.655 1493.94 952.562L1494.26 952.46C1504.75 948.691 1536.48 934.435 1537.82 933.83L1537.87 933.812L1537.91 933.792C1538.17 933.669 1564.39 921.231 1581.23 911.885L1581.45 911.755C1581.66 911.624 1581.89 911.484 1582.15 911.33C1584.85 909.714 1590.48 906.353 1593.13 898.35C1595.36 891.738 1592.48 882.255 1592.14 881.197L1592.09 881.06C1591.93 880.616 1588.14 870.061 1583.4 859.899L1578.97 850.401C1574.22 840.24 1568.57 830.553 1568.33 830.145ZM1575.68 863.502C1580.07 872.907 1583.74 882.99 1584.07 883.917C1584.89 886.519 1586.18 892.767 1585.09 895.988C1583.44 900.997 1580.23 902.914 1577.88 904.313C1577.62 904.468 1577.36 904.625 1577.1 904.785C1560.81 913.818 1535.59 925.806 1534.43 926.357C1533.11 926.948 1501.84 940.985 1491.68 944.661C1491.15 944.815 1490.58 945.007 1489.98 945.211C1486.95 946.238 1482.79 947.645 1478.25 945.843L1478.15 945.803C1475.08 944.68 1471.33 940.021 1469.68 937.333C1469.3 936.69 1463.85 927.297 1459.4 917.761L1454.97 908.262C1450.59 898.868 1446.92 888.796 1446.58 887.85C1445.63 884.783 1444.52 878.864 1445.56 875.776C1447.27 870.615 1450.65 868.555 1452.88 867.192C1453.09 867.062 1453.29 866.941 1453.48 866.826C1470.01 857.672 1495.42 845.604 1496.33 845.171C1497.25 844.75 1522.8 833.038 1540.29 826.314C1540.51 826.243 1540.75 826.162 1541.01 826.075C1543.55 825.21 1547.41 823.903 1552.38 825.79L1552.43 825.808C1555.5 826.931 1559.29 831.682 1560.97 834.427C1561.33 835.034 1566.79 844.446 1571.25 854.003L1575.68 863.502Z" fill="#FFC000"/>
</g>
<g clip-path="url(#clip12_197_86)">
<path d="M1721.91 4.66531L1685.65 2.89957C1683.57 2.79795 1681.61 3.75372 1680.4 5.45544C1679.2 7.15863 1678.99 9.27159 1679.85 11.1098L1694.05 41.5357C1694.9 43.3652 1696.65 44.5644 1698.72 44.7422C1699.8 44.835 1700.85 44.6408 1701.8 44.1996C1702.68 43.7854 1703.46 43.1658 1704.04 42.3965L1726.11 13.7372C1726.75 12.9026 1727.15 11.9202 1727.28 10.8938C1727.4 9.86751 1727.24 8.83531 1726.81 7.90625C1726.38 6.9767 1725.7 6.1848 1724.84 5.6143C1723.98 5.0438 1722.97 4.71592 1721.91 4.66531ZM1699.98 34.1063L1689.37 11.3665L1716.47 12.6865L1699.98 34.1063Z" fill="#FFC000"/>
<path d="M1757.33 -35.8549L1757.3 -35.9101C1756.71 -36.8798 1751.36 -45.4498 1744.62 -47.9333C1736.78 -50.8977 1730.47 -48.7548 1727.43 -47.7233C1727.2 -47.6447 1726.97 -47.5681 1726.74 -47.4937L1726.5 -47.4093C1708.52 -40.5043 1682.14 -28.3996 1681.88 -28.2778L1681.86 -28.268L1681.83 -28.2562C1681.57 -28.1324 1655.35 -15.6945 1638.35 -6.27549L1638.13 -6.14416C1637.95 -6.03259 1637.76 -5.91412 1637.55 -5.78427C1634.84 -4.13431 1629.21 -0.699316 1626.52 7.4138C1624.29 14.0246 1627.18 23.5071 1627.51 24.567L1627.56 24.7036C1627.72 25.1472 1631.51 35.7027 1636.25 45.8639L1640.69 55.3626C1645.43 65.524 1651.08 75.2118 1651.32 75.6197L1651.35 75.6801C1651.94 76.6334 1657.21 85.0375 1663.93 87.5326C1671.36 90.4625 1677.99 88.2183 1681.55 87.0109C1682.11 86.82 1682.6 86.6551 1682.94 86.5617L1683.26 86.4602C1693.75 82.6907 1725.48 68.435 1726.82 67.83L1726.87 67.8122L1726.91 67.7924C1727.17 67.6686 1753.39 55.2312 1770.23 45.8853L1770.45 45.755C1770.66 45.6239 1770.89 45.4835 1771.15 45.3297C1773.85 43.7139 1779.48 40.3525 1782.13 32.3497C1784.36 25.7384 1781.48 16.2552 1781.14 15.1968L1781.09 15.0601C1780.93 14.6156 1777.14 4.06061 1772.4 -6.10058L1767.97 -15.5993C1763.22 -25.7603 1757.57 -35.4471 1757.33 -35.8549ZM1764.68 -2.49829C1769.07 6.90671 1772.74 16.99 1773.07 17.9166C1773.89 20.519 1775.18 26.767 1774.09 29.9883C1772.44 34.9966 1769.23 36.9137 1766.88 38.3125C1766.62 38.4676 1766.36 38.6251 1766.1 38.7851C1749.81 47.818 1724.59 59.8059 1723.43 60.3568C1722.11 60.9485 1690.84 74.9848 1680.68 78.6608C1680.15 78.8154 1679.58 79.0072 1678.98 79.2105C1675.95 80.2382 1671.79 81.6453 1667.25 79.8432L1667.15 79.8029C1664.08 78.6795 1660.33 74.0212 1658.68 71.333C1658.3 70.6897 1652.85 61.2974 1648.4 51.7608L1643.97 42.2621C1639.59 32.868 1635.92 22.796 1635.58 21.8501C1634.63 18.7825 1633.52 12.8636 1634.56 9.7755C1636.27 4.61478 1639.65 2.55451 1641.88 1.19186C1642.09 1.06153 1642.29 0.940519 1642.48 0.825709C1659.01 -8.32753 1684.42 -20.3956 1685.33 -20.8291C1686.25 -21.2501 1711.8 -32.9624 1729.29 -39.6855C1729.51 -39.7572 1729.75 -39.8382 1730.01 -39.9248C1732.55 -40.7901 1736.41 -42.0974 1741.38 -40.2096L1741.43 -40.192C1744.5 -39.0687 1748.29 -34.3184 1749.97 -31.5731C1750.33 -30.9659 1755.79 -21.554 1760.25 -11.997L1764.68 -2.49829Z" fill="#FFC000"/>
</g>
<g clip-path="url(#clip13_197_86)">
<path d="M1427.91 593.665L1391.65 591.9C1389.57 591.798 1387.61 592.754 1386.4 594.456C1385.2 596.159 1384.99 598.272 1385.85 600.11L1400.05 630.536C1400.9 632.365 1402.65 633.564 1404.72 633.742C1405.8 633.835 1406.85 633.641 1407.8 633.2C1408.68 632.786 1409.46 632.166 1410.04 631.397L1432.11 602.737C1432.75 601.903 1433.15 600.92 1433.28 599.894C1433.4 598.868 1433.24 597.835 1432.81 596.906C1432.38 595.977 1431.7 595.185 1430.84 594.614C1429.98 594.044 1428.97 593.716 1427.91 593.665ZM1405.98 623.106L1395.37 600.367L1422.47 601.687L1405.98 623.106Z" fill="#FFC000"/>
<path d="M1463.33 553.145L1463.3 553.09C1462.71 552.12 1457.36 543.55 1450.62 541.067C1442.78 538.102 1436.47 540.245 1433.43 541.277C1433.2 541.355 1432.97 541.432 1432.74 541.506L1432.5 541.591C1414.52 548.496 1388.14 560.6 1387.88 560.722L1387.86 560.732L1387.83 560.744C1387.57 560.868 1361.35 573.306 1344.35 582.725L1344.13 582.856C1343.95 582.967 1343.76 583.086 1343.55 583.216C1340.84 584.866 1335.21 588.301 1332.52 596.414C1330.29 603.025 1333.18 612.507 1333.51 613.567L1333.56 613.704C1333.72 614.147 1337.51 624.703 1342.25 634.864L1346.69 644.363C1351.43 654.524 1357.08 664.212 1357.32 664.62L1357.35 664.68C1357.94 665.633 1363.21 674.038 1369.93 676.533C1377.36 679.462 1383.99 677.218 1387.55 676.011C1388.11 675.82 1388.6 675.655 1388.94 675.562L1389.26 675.46C1399.75 671.691 1431.48 657.435 1432.82 656.83L1432.87 656.812L1432.91 656.792C1433.17 656.669 1459.39 644.231 1476.23 634.885L1476.45 634.755C1476.66 634.624 1476.89 634.484 1477.15 634.33C1479.85 632.714 1485.48 629.353 1488.13 621.35C1490.36 614.738 1487.48 605.255 1487.14 604.197L1487.09 604.06C1486.93 603.616 1483.14 593.061 1478.4 582.899L1473.97 573.401C1469.22 563.24 1463.57 553.553 1463.33 553.145ZM1470.68 586.502C1475.07 595.907 1478.74 605.99 1479.07 606.917C1479.89 609.519 1481.18 615.767 1480.09 618.988C1478.44 623.997 1475.23 625.914 1472.88 627.313C1472.62 627.468 1472.36 627.625 1472.1 627.785C1455.81 636.818 1430.59 648.806 1429.43 649.357C1428.11 649.948 1396.84 663.985 1386.68 667.661C1386.15 667.815 1385.58 668.007 1384.98 668.211C1381.95 669.238 1377.79 670.645 1373.25 668.843L1373.15 668.803C1370.08 667.68 1366.33 663.021 1364.68 660.333C1364.3 659.69 1358.85 650.297 1354.4 640.761L1349.97 631.262C1345.59 621.868 1341.92 611.796 1341.58 610.85C1340.63 607.783 1339.52 601.864 1340.56 598.776C1342.27 593.615 1345.65 591.555 1347.88 590.192C1348.09 590.062 1348.29 589.941 1348.48 589.826C1365.01 580.672 1390.42 568.604 1391.33 568.171C1392.25 567.75 1417.8 556.038 1435.29 549.314C1435.51 549.243 1435.75 549.162 1436.01 549.075C1438.55 548.21 1442.41 546.903 1447.38 548.79L1447.43 548.808C1450.5 549.931 1454.29 554.682 1455.97 557.427C1456.33 558.034 1461.79 567.446 1466.25 577.003L1470.68 586.502Z" fill="#FFC000"/>
</g>
</g>
</g>
<defs>
<clipPath id="clip0_197_86">
<rect width="1920" height="1080" fill="white"/>
</clipPath>
<clipPath id="clip1_197_86">
<rect width="145.348" height="140.082" fill="white" transform="translate(125.815 286.965) rotate(-25.0158)"/>
</clipPath>
<clipPath id="clip2_197_86">
<rect width="145.348" height="140.082" fill="white" transform="translate(485 206.463) rotate(-25.0158)"/>
</clipPath>
<clipPath id="clip3_197_86">
<rect width="145.348" height="140.082" fill="white" transform="translate(302 528.463) rotate(-25.0158)"/>
</clipPath>
<clipPath id="clip4_197_86">
<rect width="145.348" height="140.082" fill="white" transform="translate(-92 610.463) rotate(-25.0158)"/>
</clipPath>
<clipPath id="clip5_197_86">
<rect width="145.348" height="140.082" fill="white" transform="translate(99 866.463) rotate(-25.0158)"/>
</clipPath>
<clipPath id="clip6_197_86">
<rect width="145.348" height="140.082" fill="white" transform="translate(288 0.462891) rotate(-25.0158)"/>
</clipPath>
<clipPath id="clip7_197_86">
<rect width="1920" height="1080" fill="white" transform="translate(1328 2)"/>
</clipPath>
<clipPath id="clip8_197_86">
<rect width="145.348" height="140.082" fill="white" transform="translate(1453.82 288.965) rotate(-25.0158)"/>
</clipPath>
<clipPath id="clip9_197_86">
<rect width="145.348" height="140.082" fill="white" transform="translate(1813 208.463) rotate(-25.0158)"/>
</clipPath>
<clipPath id="clip10_197_86">
<rect width="145.348" height="140.082" fill="white" transform="translate(1630 530.463) rotate(-25.0158)"/>
</clipPath>
<clipPath id="clip11_197_86">
<rect width="145.348" height="140.082" fill="white" transform="translate(1427 868.463) rotate(-25.0158)"/>
</clipPath>
<clipPath id="clip12_197_86">
<rect width="145.348" height="140.082" fill="white" transform="translate(1616 2.46289) rotate(-25.0158)"/>
</clipPath>
<clipPath id="clip13_197_86">
<rect width="145.348" height="140.082" fill="white" transform="translate(1322 591.463) rotate(-25.0158)"/>
</clipPath>
</defs>
</svg>
