<svg width="1920" height="1080" viewBox="0 0 1920 1080" fill="none" xmlns="http://www.w3.org/2000/svg">
<g clip-path="url(#clip0_197_86)">
<rect width="1920" height="1080" fill="white"/>
<g clip-path="url(#clip1_197_86)">
<path d="M231.729 289.168L195.469 287.402C193.384 287.3 191.422 288.256 190.219 289.958C189.016 291.661 188.81 293.774 189.667 295.612L203.866 326.038C204.719 327.867 206.464 329.067 208.531 329.244C209.611 329.337 210.67 329.143 211.615 328.702C212.499 328.288 213.27 327.668 213.859 326.899L235.921 298.24C236.564 297.405 236.969 296.423 237.093 295.396C237.217 294.37 237.056 293.338 236.627 292.409C236.198 291.479 235.516 290.687 234.654 290.117C233.792 289.546 232.781 289.218 231.729 289.168ZM209.798 318.609L199.187 295.869L226.286 297.189L209.798 318.609Z" fill="#FFB0B0"/>
<path d="M267.149 248.647L267.116 248.592C266.527 247.622 261.176 239.052 254.435 236.569C246.599 233.604 240.283 235.747 237.246 236.779C237.017 236.858 236.787 236.934 236.557 237.009L236.316 237.093C218.334 243.998 191.959 256.103 191.695 256.224L191.672 256.234L191.649 256.246C191.386 256.37 165.167 268.808 148.167 278.227L147.946 278.358C147.77 278.47 147.575 278.588 147.362 278.718C144.655 280.368 139.02 283.803 136.335 291.916C134.103 298.527 136.991 308.009 137.328 309.069L137.374 309.206C137.533 309.649 141.326 320.205 146.068 330.366L150.501 339.865C155.242 350.026 160.895 359.714 161.133 360.122L161.17 360.182C161.751 361.136 167.023 369.54 173.744 372.035C181.179 374.965 187.803 372.72 191.366 371.513C191.929 371.322 192.414 371.157 192.753 371.064L193.077 370.962C203.561 367.193 235.295 352.937 236.64 352.332L236.681 352.314L236.72 352.295C236.983 352.171 263.201 339.733 280.045 330.388L280.264 330.257C280.471 330.126 280.707 329.986 280.965 329.832C283.669 328.216 289.299 324.855 291.946 316.852C294.178 310.241 291.291 300.757 290.953 299.699L290.908 299.562C290.748 299.118 286.956 288.563 282.214 278.402L277.782 268.903C273.039 258.742 267.387 249.055 267.149 248.647ZM274.495 282.004C278.883 291.409 282.551 301.492 282.885 302.419C283.701 305.021 284.995 311.269 283.908 314.49C282.251 319.499 279.042 321.416 276.699 322.815C276.438 322.97 276.177 323.127 275.919 323.287C259.625 332.32 234.405 344.308 233.242 344.859C231.926 345.451 200.651 359.487 190.497 363.163C189.961 363.318 189.393 363.509 188.795 363.713C185.762 364.74 181.609 366.147 177.07 364.345L176.964 364.305C173.895 363.182 170.146 358.523 168.491 355.835C168.117 355.192 162.669 345.8 158.219 336.263L153.787 326.764C149.403 317.37 145.738 307.298 145.397 306.352C144.442 303.285 143.332 297.366 144.374 294.278C146.082 289.117 149.461 287.057 151.696 285.694C151.909 285.564 152.108 285.443 152.291 285.328C168.828 276.175 194.232 264.107 195.143 263.673C196.06 263.252 221.619 251.54 239.105 244.817C239.325 244.745 239.564 244.664 239.821 244.577C242.37 243.712 246.223 242.405 251.2 244.293L251.245 244.31C254.315 245.433 258.107 250.184 259.788 252.929C260.142 253.536 265.602 262.948 270.062 272.505L274.495 282.004Z" fill="#FFB0B0"/>
</g>
<g clip-path="url(#clip2_197_86)">
<path d="M675.913 208.665L639.654 206.9C637.569 206.798 635.607 207.754 634.404 209.456C633.2 211.159 632.994 213.272 633.852 215.11L648.05 245.536C648.904 247.365 650.648 248.564 652.716 248.742C653.796 248.835 654.854 248.641 655.8 248.2C656.684 247.786 657.455 247.166 658.044 246.397L680.106 217.737C680.749 216.903 681.154 215.92 681.278 214.894C681.402 213.868 681.241 212.835 680.811 211.906C680.382 210.977 679.701 210.185 678.839 209.614C677.976 209.044 676.966 208.716 675.913 208.665ZM653.983 238.106L643.371 215.367L670.471 216.687L653.983 238.106Z" fill="#FFABAB"/>
<path d="M711.333 168.145L711.3 168.09C710.712 167.12 705.361 158.55 698.619 156.067C690.783 153.102 684.467 155.245 681.431 156.277C681.202 156.355 680.972 156.432 680.741 156.506L680.5 156.591C662.519 163.496 636.144 175.6 635.88 175.722L635.857 175.732L635.834 175.744C635.571 175.868 609.352 188.306 592.352 197.725L592.131 197.856C591.955 197.967 591.759 198.086 591.547 198.216C588.839 199.866 583.205 203.301 580.52 211.414C578.288 218.025 581.176 227.507 581.513 228.567L581.558 228.704C581.717 229.147 585.511 239.703 590.253 249.864L594.685 259.363C599.427 269.524 605.08 279.212 605.318 279.62L605.355 279.68C605.935 280.633 611.208 289.038 617.929 291.533C625.364 294.462 631.988 292.218 635.551 291.011C636.114 290.82 636.598 290.655 636.938 290.562L637.261 290.46C647.745 286.691 679.48 272.435 680.825 271.83L680.865 271.812L680.905 271.792C681.168 271.669 707.386 259.231 724.229 249.885L724.449 249.755C724.656 249.624 724.891 249.484 725.15 249.33C727.854 247.714 733.483 244.353 736.13 236.35C738.362 229.738 735.475 220.255 735.138 219.197L735.092 219.06C734.933 218.616 731.141 208.061 726.399 197.899L721.966 188.401C717.224 178.24 711.572 168.553 711.333 168.145ZM718.679 201.502C723.068 210.907 726.736 220.99 727.07 221.917C727.886 224.519 729.18 230.767 728.092 233.988C726.435 238.997 723.227 240.914 720.884 242.313C720.622 242.468 720.362 242.625 720.104 242.785C703.809 251.818 678.589 263.806 677.427 264.357C676.111 264.948 644.836 278.985 634.682 282.661C634.145 282.815 633.578 283.007 632.98 283.211C629.946 284.238 625.794 285.645 621.255 283.843L621.149 283.803C618.079 282.68 614.331 278.021 612.676 275.333C612.301 274.69 606.854 265.297 602.404 255.761L597.971 246.262C593.588 236.868 589.923 226.796 589.582 225.85C588.627 222.783 587.516 216.864 588.558 213.776C590.266 208.615 593.646 206.555 595.881 205.192C596.094 205.062 596.293 204.941 596.476 204.826C613.012 195.672 638.416 183.604 639.328 183.171C640.245 182.75 665.804 171.038 683.29 164.314C683.51 164.243 683.749 164.162 684.005 164.075C686.554 163.21 690.407 161.903 695.384 163.79L695.43 163.808C698.5 164.931 702.291 169.682 703.972 172.427C704.327 173.034 709.787 182.446 714.247 192.003L718.679 201.502Z" fill="#FFABAB"/>
</g>
<g clip-path="url(#clip3_197_86)">
<path d="M407.913 530.665L371.654 528.9C369.569 528.798 367.607 529.754 366.404 531.456C365.2 533.159 364.994 535.272 365.852 537.11L380.05 567.536C380.904 569.365 382.648 570.564 384.716 570.742C385.796 570.835 386.854 570.641 387.8 570.2C388.684 569.786 389.455 569.166 390.044 568.397L412.106 539.737C412.749 538.903 413.154 537.92 413.278 536.894C413.402 535.868 413.241 534.835 412.811 533.906C412.382 532.977 411.701 532.185 410.839 531.614C409.976 531.044 408.966 530.716 407.913 530.665ZM385.983 560.106L375.371 537.367L402.471 538.687L385.983 560.106Z" fill="#FFABAB"/>
<path d="M443.333 490.145L443.3 490.09C442.712 489.12 437.361 480.55 430.619 478.067C422.783 475.102 416.467 477.245 413.431 478.277C413.202 478.355 412.972 478.432 412.741 478.506L412.5 478.591C394.519 485.496 368.144 497.6 367.88 497.722L367.857 497.732L367.834 497.744C367.571 497.868 341.352 510.306 324.352 519.725L324.131 519.856C323.955 519.967 323.759 520.086 323.547 520.216C320.839 521.866 315.205 525.301 312.52 533.414C310.288 540.025 313.176 549.507 313.513 550.567L313.558 550.704C313.717 551.147 317.511 561.703 322.253 571.864L326.685 581.363C331.427 591.524 337.08 601.212 337.318 601.62L337.355 601.68C337.935 602.633 343.208 611.038 349.929 613.533C357.364 616.462 363.988 614.218 367.551 613.011C368.114 612.82 368.598 612.655 368.938 612.562L369.261 612.46C379.745 608.691 411.48 594.435 412.825 593.83L412.865 593.812L412.905 593.792C413.168 593.669 439.386 581.231 456.229 571.885L456.449 571.755C456.656 571.624 456.891 571.484 457.15 571.33C459.854 569.714 465.483 566.353 468.13 558.35C470.362 551.738 467.475 542.255 467.138 541.197L467.092 541.06C466.933 540.616 463.141 530.061 458.399 519.899L453.966 510.401C449.224 500.24 443.572 490.553 443.333 490.145ZM450.679 523.502C455.068 532.907 458.736 542.99 459.07 543.917C459.886 546.519 461.18 552.767 460.092 555.988C458.435 560.997 455.227 562.914 452.884 564.313C452.622 564.468 452.362 564.625 452.104 564.785C435.809 573.818 410.589 585.806 409.427 586.357C408.111 586.948 376.836 600.985 366.682 604.661C366.145 604.815 365.578 605.007 364.98 605.211C361.946 606.238 357.794 607.645 353.255 605.843L353.149 605.803C350.079 604.68 346.331 600.021 344.676 597.333C344.301 596.69 338.854 587.297 334.404 577.761L329.971 568.262C325.588 558.868 321.923 548.796 321.582 547.85C320.627 544.783 319.516 538.864 320.558 535.776C322.266 530.615 325.646 528.555 327.881 527.192C328.094 527.062 328.293 526.941 328.476 526.826C345.012 517.672 370.416 505.604 371.328 505.171C372.245 504.75 397.804 493.038 415.29 486.314C415.51 486.243 415.749 486.162 416.005 486.075C418.554 485.21 422.407 483.903 427.384 485.79L427.43 485.808C430.5 486.931 434.291 491.682 435.972 494.427C436.327 495.034 441.787 504.446 446.247 514.003L450.679 523.502Z" fill="#FFABAB"/>
</g>
<g clip-path="url(#clip4_197_86)">
<path d="M13.9132 612.665L-22.346 610.9C-24.431 610.798 -26.3931 611.754 -27.5961 613.456C-28.7997 615.159 -29.0057 617.272 -28.1479 619.11L-13.9499 649.536C-13.0961 651.365 -11.3518 652.564 -9.28391 652.742C-8.2043 652.835 -7.14582 652.641 -6.20016 652.2C-5.31593 651.786 -4.54488 651.166 -3.95644 650.397L18.1061 621.737C18.7488 620.903 19.1536 619.92 19.2778 618.894C19.4019 617.868 19.2408 616.835 18.8114 615.906C18.3823 614.977 17.7007 614.185 16.8385 613.614C15.9762 613.044 14.9655 612.716 13.9132 612.665ZM-8.01738 642.106L-18.6287 619.367L8.47111 620.687L-8.01738 642.106Z" fill="#FFABAB"/>
<path d="M49.3332 572.145L49.3002 572.09C48.7118 571.12 43.3606 562.55 36.6192 560.067C28.7832 557.102 22.4674 559.245 19.4307 560.277C19.2016 560.355 18.9717 560.432 18.7412 560.506L18.5002 560.591C0.518485 567.496 -25.8563 579.6 -26.1199 579.722L-26.1435 579.732L-26.1662 579.744C-26.4289 579.868 -52.6481 592.306 -69.6482 601.725L-69.8695 601.856C-70.0451 601.967 -70.2408 602.086 -70.4531 602.216C-73.1607 603.866 -78.7949 607.301 -81.4799 615.414C-83.7121 622.025 -80.8241 631.507 -80.4874 632.567L-80.4418 632.704C-80.2827 633.147 -76.4889 643.703 -71.7473 653.864L-67.3148 663.363C-62.573 673.524 -56.9205 683.212 -56.6822 683.62L-56.6455 683.68C-56.0648 684.633 -50.7922 693.038 -44.0711 695.533C-36.6365 698.462 -30.0125 696.218 -26.4495 695.011C-25.8863 694.82 -25.4016 694.655 -25.0624 694.562L-24.7388 694.46C-14.2546 690.691 17.4795 676.435 18.8246 675.83L18.8654 675.812L18.9051 675.792C19.1678 675.669 45.386 663.231 62.2294 653.885L62.4486 653.755C62.6556 653.624 62.8912 653.484 63.1496 653.33C65.854 651.714 71.4831 648.353 74.1303 640.35C76.3623 633.738 73.4752 624.255 73.1379 623.197L73.0923 623.06C72.9328 622.616 69.1405 612.061 64.3989 601.899L59.9664 592.401C55.2236 582.24 49.5715 572.553 49.3332 572.145ZM56.6793 605.502C61.068 614.907 64.7358 624.99 65.0701 625.917C65.8857 628.519 67.1795 634.767 66.0923 637.988C64.4352 642.997 61.2269 644.914 58.8839 646.313C58.6222 646.468 58.3621 646.625 58.1035 646.785C41.8092 655.818 16.5892 667.806 15.4268 668.357C14.1109 668.948 -17.1642 682.985 -27.3186 686.661C-27.8548 686.815 -28.4225 687.007 -29.02 687.211C-32.0537 688.238 -36.2064 689.645 -40.7452 687.843L-40.8511 687.803C-43.9206 686.68 -47.6692 682.021 -49.3239 679.333C-49.6987 678.69 -55.146 669.297 -59.5962 659.761L-64.0287 650.262C-68.4124 640.868 -72.0771 630.796 -72.4182 629.85C-73.3735 626.783 -74.4837 620.864 -73.4417 617.776C-71.7336 612.615 -68.3544 610.555 -66.1194 609.192C-65.9061 609.062 -65.707 608.941 -65.5243 608.826C-48.9877 599.672 -23.5836 587.604 -22.6722 587.171C-21.755 586.75 3.80413 575.038 21.29 568.314C21.5096 568.243 21.7485 568.162 22.0053 568.075C24.5544 567.21 28.4072 565.903 33.3842 567.79L33.43 567.808C36.4997 568.931 40.2913 573.682 41.9724 576.427C42.3268 577.034 47.7871 586.446 52.2468 596.003L56.6793 605.502Z" fill="#FFABAB"/>
</g>
<g clip-path="url(#clip5_197_86)">
<path d="M204.913 868.665L168.654 866.9C166.569 866.798 164.607 867.754 163.404 869.456C162.2 871.159 161.994 873.272 162.852 875.11L177.05 905.536C177.904 907.365 179.648 908.564 181.716 908.742C182.796 908.835 183.854 908.641 184.8 908.2C185.684 907.786 186.455 907.166 187.044 906.397L209.106 877.737C209.749 876.903 210.154 875.92 210.278 874.894C210.402 873.868 210.241 872.835 209.811 871.906C209.382 870.977 208.701 870.185 207.839 869.614C206.976 869.044 205.966 868.716 204.913 868.665ZM182.983 898.106L172.371 875.367L199.471 876.687L182.983 898.106Z" fill="#FFABAB"/>
<path d="M240.333 828.145L240.3 828.09C239.712 827.12 234.361 818.55 227.619 816.067C219.783 813.102 213.467 815.245 210.431 816.277C210.202 816.355 209.972 816.432 209.741 816.506L209.5 816.591C191.518 823.496 165.144 835.6 164.88 835.722L164.856 835.732L164.834 835.744C164.571 835.868 138.352 848.306 121.352 857.725L121.131 857.856C120.955 857.967 120.759 858.086 120.547 858.216C117.839 859.866 112.205 863.301 109.52 871.414C107.288 878.025 110.176 887.507 110.513 888.567L110.558 888.704C110.717 889.147 114.511 899.703 119.253 909.864L123.685 919.363C128.427 929.524 134.08 939.212 134.318 939.62L134.354 939.68C134.935 940.633 140.208 949.038 146.929 951.533C154.363 954.462 160.988 952.218 164.551 951.011C165.114 950.82 165.598 950.655 165.938 950.562L166.261 950.46C176.745 946.691 208.479 932.435 209.825 931.83L209.865 931.812L209.905 931.792C210.168 931.669 236.386 919.231 253.229 909.885L253.449 909.755C253.656 909.624 253.891 909.484 254.15 909.33C256.854 907.714 262.483 904.353 265.13 896.35C267.362 889.738 264.475 880.255 264.138 879.197L264.092 879.06C263.933 878.616 260.141 868.061 255.399 857.899L250.966 848.401C246.224 838.24 240.571 828.553 240.333 828.145ZM247.679 861.502C252.068 870.907 255.736 880.99 256.07 881.917C256.886 884.519 258.179 890.767 257.092 893.988C255.435 898.997 252.227 900.914 249.884 902.313C249.622 902.468 249.362 902.625 249.103 902.785C232.809 911.818 207.589 923.806 206.427 924.357C205.111 924.948 173.836 938.985 163.681 942.661C163.145 942.815 162.577 943.007 161.98 943.211C158.946 944.238 154.794 945.645 150.255 943.843L150.149 943.803C147.079 942.68 143.331 938.021 141.676 935.333C141.301 934.69 135.854 925.297 131.404 915.761L126.971 906.262C122.588 896.868 118.923 886.796 118.582 885.85C117.626 882.783 116.516 876.864 117.558 873.776C119.266 868.615 122.646 866.555 124.881 865.192C125.094 865.062 125.293 864.941 125.476 864.826C142.012 855.672 167.416 843.604 168.328 843.171C169.245 842.75 194.804 831.038 212.29 824.314C212.51 824.243 212.748 824.162 213.005 824.075C215.554 823.21 219.407 821.903 224.384 823.79L224.43 823.808C227.5 824.931 231.291 829.682 232.972 832.427C233.327 833.034 238.787 842.446 243.247 852.003L247.679 861.502Z" fill="#FFABAB"/>
</g>
<g clip-path="url(#clip6_197_86)">
<path d="M807.913 594.665L771.654 592.9C769.569 592.798 767.607 593.754 766.404 595.456C765.2 597.159 764.994 599.272 765.852 601.11L780.05 631.536C780.904 633.365 782.648 634.564 784.716 634.742C785.796 634.835 786.854 634.641 787.8 634.2C788.684 633.786 789.455 633.166 790.044 632.397L812.106 603.737C812.749 602.903 813.154 601.92 813.278 600.894C813.402 599.868 813.241 598.835 812.811 597.906C812.382 596.977 811.701 596.185 810.839 595.614C809.976 595.044 808.966 594.716 807.913 594.665ZM785.983 624.106L775.371 601.367L802.471 602.687L785.983 624.106Z" fill="#FFABAB"/>
<path d="M843.333 554.145L843.3 554.09C842.712 553.12 837.361 544.55 830.619 542.067C822.783 539.102 816.467 541.245 813.431 542.277C813.202 542.355 812.972 542.432 812.741 542.506L812.5 542.591C794.519 549.496 768.144 561.6 767.88 561.722L767.857 561.732L767.834 561.744C767.571 561.868 741.352 574.306 724.352 583.725L724.131 583.856C723.955 583.967 723.759 584.086 723.547 584.216C720.839 585.866 715.205 589.301 712.52 597.414C710.288 604.025 713.176 613.507 713.513 614.567L713.558 614.704C713.717 615.147 717.511 625.703 722.253 635.864L726.685 645.363C731.427 655.524 737.08 665.212 737.318 665.62L737.355 665.68C737.935 666.633 743.208 675.038 749.929 677.533C757.364 680.462 763.988 678.218 767.551 677.011C768.114 676.82 768.598 676.655 768.938 676.562L769.261 676.46C779.745 672.691 811.48 658.435 812.825 657.83L812.865 657.812L812.905 657.792C813.168 657.669 839.386 645.231 856.229 635.885L856.449 635.755C856.656 635.624 856.891 635.484 857.15 635.33C859.854 633.714 865.483 630.353 868.13 622.35C870.362 615.738 867.475 606.255 867.138 605.197L867.092 605.06C866.933 604.616 863.141 594.061 858.399 583.899L853.966 574.401C849.224 564.24 843.572 554.553 843.333 554.145ZM850.679 587.502C855.068 596.907 858.736 606.99 859.07 607.917C859.886 610.519 861.18 616.767 860.092 619.988C858.435 624.997 855.227 626.914 852.884 628.313C852.622 628.468 852.362 628.625 852.104 628.785C835.809 637.818 810.589 649.806 809.427 650.357C808.111 650.948 776.836 664.985 766.682 668.661C766.145 668.815 765.578 669.007 764.98 669.211C761.946 670.238 757.794 671.645 753.255 669.843L753.149 669.803C750.079 668.68 746.331 664.021 744.676 661.333C744.301 660.69 738.854 651.297 734.404 641.761L729.971 632.262C725.588 622.868 721.923 612.796 721.582 611.85C720.627 608.783 719.516 602.864 720.558 599.776C722.266 594.615 725.646 592.555 727.881 591.192C728.094 591.062 728.293 590.941 728.476 590.826C745.012 581.672 770.416 569.604 771.328 569.171C772.245 568.75 797.804 557.038 815.29 550.314C815.51 550.243 815.749 550.162 816.005 550.075C818.554 549.21 822.407 547.903 827.384 549.79L827.43 549.808C830.5 550.931 834.291 555.682 835.972 558.427C836.327 559.034 841.787 568.446 846.247 578.003L850.679 587.502Z" fill="#FFABAB"/>
</g>
<g clip-path="url(#clip7_197_86)">
<path d="M1486.91 388.665L1450.65 386.9C1448.57 386.798 1446.61 387.754 1445.4 389.456C1444.2 391.159 1443.99 393.272 1444.85 395.11L1459.05 425.536C1459.9 427.365 1461.65 428.564 1463.72 428.742C1464.8 428.835 1465.85 428.641 1466.8 428.2C1467.68 427.786 1468.46 427.166 1469.04 426.397L1491.11 397.737C1491.75 396.903 1492.15 395.92 1492.28 394.894C1492.4 393.868 1492.24 392.835 1491.81 391.906C1491.38 390.977 1490.7 390.185 1489.84 389.614C1488.98 389.044 1487.97 388.716 1486.91 388.665ZM1464.98 418.106L1454.37 395.367L1481.47 396.687L1464.98 418.106Z" fill="#FFABAB"/>
<path d="M1522.33 348.145L1522.3 348.09C1521.71 347.12 1516.36 338.55 1509.62 336.067C1501.78 333.102 1495.47 335.245 1492.43 336.277C1492.2 336.355 1491.97 336.432 1491.74 336.506L1491.5 336.591C1473.52 343.496 1447.14 355.6 1446.88 355.722L1446.86 355.732L1446.83 355.744C1446.57 355.868 1420.35 368.306 1403.35 377.725L1403.13 377.856C1402.95 377.967 1402.76 378.086 1402.55 378.216C1399.84 379.866 1394.21 383.301 1391.52 391.414C1389.29 398.025 1392.18 407.507 1392.51 408.567L1392.56 408.704C1392.72 409.147 1396.51 419.703 1401.25 429.864L1405.69 439.363C1410.43 449.524 1416.08 459.212 1416.32 459.62L1416.35 459.68C1416.94 460.633 1422.21 469.038 1428.93 471.533C1436.36 474.462 1442.99 472.218 1446.55 471.011C1447.11 470.82 1447.6 470.655 1447.94 470.562L1448.26 470.46C1458.75 466.691 1490.48 452.435 1491.82 451.83L1491.87 451.812L1491.91 451.792C1492.17 451.669 1518.39 439.231 1535.23 429.885L1535.45 429.755C1535.66 429.624 1535.89 429.484 1536.15 429.33C1538.85 427.714 1544.48 424.353 1547.13 416.35C1549.36 409.738 1546.48 400.255 1546.14 399.197L1546.09 399.06C1545.93 398.616 1542.14 388.061 1537.4 377.899L1532.97 368.401C1528.22 358.24 1522.57 348.553 1522.33 348.145ZM1529.68 381.502C1534.07 390.907 1537.74 400.99 1538.07 401.917C1538.89 404.519 1540.18 410.767 1539.09 413.988C1537.44 418.997 1534.23 420.914 1531.88 422.313C1531.62 422.468 1531.36 422.625 1531.1 422.785C1514.81 431.818 1489.59 443.806 1488.43 444.357C1487.11 444.948 1455.84 458.985 1445.68 462.661C1445.15 462.815 1444.58 463.007 1443.98 463.211C1440.95 464.238 1436.79 465.645 1432.25 463.843L1432.15 463.803C1429.08 462.68 1425.33 458.021 1423.68 455.333C1423.3 454.69 1417.85 445.297 1413.4 435.761L1408.97 426.262C1404.59 416.868 1400.92 406.796 1400.58 405.85C1399.63 402.783 1398.52 396.864 1399.56 393.776C1401.27 388.615 1404.65 386.555 1406.88 385.192C1407.09 385.062 1407.29 384.941 1407.48 384.826C1424.01 375.672 1449.42 363.604 1450.33 363.171C1451.25 362.75 1476.8 351.038 1494.29 344.314C1494.51 344.243 1494.75 344.162 1495.01 344.075C1497.55 343.21 1501.41 341.903 1506.38 343.79L1506.43 343.808C1509.5 344.931 1513.29 349.682 1514.97 352.427C1515.33 353.034 1520.79 362.446 1525.25 372.003L1529.68 381.502Z" fill="#FFABAB"/>
</g>
<g clip-path="url(#clip8_197_86)">
<path d="M1866.91 528.665L1830.65 526.9C1828.57 526.798 1826.61 527.754 1825.4 529.456C1824.2 531.159 1823.99 533.272 1824.85 535.11L1839.05 565.536C1839.9 567.365 1841.65 568.564 1843.72 568.742C1844.8 568.835 1845.85 568.641 1846.8 568.2C1847.68 567.786 1848.46 567.166 1849.04 566.397L1871.11 537.737C1871.75 536.903 1872.15 535.92 1872.28 534.894C1872.4 533.868 1872.24 532.835 1871.81 531.906C1871.38 530.977 1870.7 530.185 1869.84 529.614C1868.98 529.044 1867.97 528.716 1866.91 528.665ZM1844.98 558.106L1834.37 535.367L1861.47 536.687L1844.98 558.106Z" fill="#FFABAB"/>
<path d="M1902.33 488.145L1902.3 488.09C1901.71 487.12 1896.36 478.55 1889.62 476.067C1881.78 473.102 1875.47 475.245 1872.43 476.277C1872.2 476.355 1871.97 476.432 1871.74 476.506L1871.5 476.591C1853.52 483.496 1827.14 495.6 1826.88 495.722L1826.86 495.732L1826.83 495.744C1826.57 495.868 1800.35 508.306 1783.35 517.725L1783.13 517.856C1782.95 517.967 1782.76 518.086 1782.55 518.216C1779.84 519.866 1774.21 523.301 1771.52 531.414C1769.29 538.025 1772.18 547.507 1772.51 548.567L1772.56 548.704C1772.72 549.147 1776.51 559.703 1781.25 569.864L1785.69 579.363C1790.43 589.524 1796.08 599.212 1796.32 599.62L1796.35 599.68C1796.94 600.633 1802.21 609.038 1808.93 611.533C1816.36 614.462 1822.99 612.218 1826.55 611.011C1827.11 610.82 1827.6 610.655 1827.94 610.562L1828.26 610.46C1838.75 606.691 1870.48 592.435 1871.82 591.83L1871.87 591.812L1871.91 591.792C1872.17 591.669 1898.39 579.231 1915.23 569.885L1915.45 569.755C1915.66 569.624 1915.89 569.484 1916.15 569.33C1918.85 567.714 1924.48 564.353 1927.13 556.35C1929.36 549.738 1926.48 540.255 1926.14 539.197L1926.09 539.06C1925.93 538.616 1922.14 528.061 1917.4 517.899L1912.97 508.401C1908.22 498.24 1902.57 488.553 1902.33 488.145ZM1909.68 521.502C1914.07 530.907 1917.74 540.99 1918.07 541.917C1918.89 544.519 1920.18 550.767 1919.09 553.988C1917.44 558.997 1914.23 560.914 1911.88 562.313C1911.62 562.468 1911.36 562.625 1911.1 562.785C1894.81 571.818 1869.59 583.806 1868.43 584.357C1867.11 584.948 1835.84 598.985 1825.68 602.661C1825.15 602.815 1824.58 603.007 1823.98 603.211C1820.95 604.238 1816.79 605.645 1812.25 603.843L1812.15 603.803C1809.08 602.68 1805.33 598.021 1803.68 595.333C1803.3 594.69 1797.85 585.297 1793.4 575.761L1788.97 566.262C1784.59 556.868 1780.92 546.796 1780.58 545.85C1779.63 542.783 1778.52 536.864 1779.56 533.776C1781.27 528.615 1784.65 526.555 1786.88 525.192C1787.09 525.062 1787.29 524.941 1787.48 524.826C1804.01 515.672 1829.42 503.604 1830.33 503.171C1831.25 502.75 1856.8 491.038 1874.29 484.314C1874.51 484.243 1874.75 484.162 1875.01 484.075C1877.55 483.21 1881.41 481.903 1886.38 483.79L1886.43 483.808C1889.5 484.931 1893.29 489.682 1894.97 492.427C1895.33 493.034 1900.79 502.446 1905.25 512.003L1909.68 521.502Z" fill="#FFABAB"/>
</g>
<g clip-path="url(#clip9_197_86)">
<path d="M1102.91 258.665L1066.65 256.9C1064.57 256.798 1062.61 257.754 1061.4 259.456C1060.2 261.159 1059.99 263.272 1060.85 265.11L1075.05 295.536C1075.9 297.365 1077.65 298.564 1079.72 298.742C1080.8 298.835 1081.85 298.641 1082.8 298.2C1083.68 297.786 1084.46 297.166 1085.04 296.397L1107.11 267.737C1107.75 266.903 1108.15 265.92 1108.28 264.894C1108.4 263.868 1108.24 262.835 1107.81 261.906C1107.38 260.977 1106.7 260.185 1105.84 259.614C1104.98 259.044 1103.97 258.716 1102.91 258.665ZM1080.98 288.106L1070.37 265.367L1097.47 266.687L1080.98 288.106Z" fill="#FFABAB"/>
<path d="M1138.33 218.145L1138.3 218.09C1137.71 217.12 1132.36 208.55 1125.62 206.067C1117.78 203.102 1111.47 205.245 1108.43 206.277C1108.2 206.355 1107.97 206.432 1107.74 206.506L1107.5 206.591C1089.52 213.496 1063.14 225.6 1062.88 225.722L1062.86 225.732L1062.83 225.744C1062.57 225.868 1036.35 238.306 1019.35 247.725L1019.13 247.856C1018.95 247.967 1018.76 248.086 1018.55 248.216C1015.84 249.866 1010.21 253.301 1007.52 261.414C1005.29 268.025 1008.18 277.507 1008.51 278.567L1008.56 278.704C1008.72 279.147 1012.51 289.703 1017.25 299.864L1021.69 309.363C1026.43 319.524 1032.08 329.212 1032.32 329.62L1032.35 329.68C1032.94 330.633 1038.21 339.038 1044.93 341.533C1052.36 344.462 1058.99 342.218 1062.55 341.011C1063.11 340.82 1063.6 340.655 1063.94 340.562L1064.26 340.46C1074.75 336.691 1106.48 322.435 1107.82 321.83L1107.87 321.812L1107.91 321.792C1108.17 321.669 1134.39 309.231 1151.23 299.885L1151.45 299.755C1151.66 299.624 1151.89 299.484 1152.15 299.33C1154.85 297.714 1160.48 294.353 1163.13 286.35C1165.36 279.738 1162.48 270.255 1162.14 269.197L1162.09 269.06C1161.93 268.616 1158.14 258.061 1153.4 247.899L1148.97 238.401C1144.22 228.24 1138.57 218.553 1138.33 218.145ZM1145.68 251.502C1150.07 260.907 1153.74 270.99 1154.07 271.917C1154.89 274.519 1156.18 280.767 1155.09 283.988C1153.44 288.997 1150.23 290.914 1147.88 292.313C1147.62 292.468 1147.36 292.625 1147.1 292.785C1130.81 301.818 1105.59 313.806 1104.43 314.357C1103.11 314.948 1071.84 328.985 1061.68 332.661C1061.15 332.815 1060.58 333.007 1059.98 333.211C1056.95 334.238 1052.79 335.645 1048.25 333.843L1048.15 333.803C1045.08 332.68 1041.33 328.021 1039.68 325.333C1039.3 324.69 1033.85 315.297 1029.4 305.761L1024.97 296.262C1020.59 286.868 1016.92 276.796 1016.58 275.85C1015.63 272.783 1014.52 266.864 1015.56 263.776C1017.27 258.615 1020.65 256.555 1022.88 255.192C1023.09 255.062 1023.29 254.941 1023.48 254.826C1040.01 245.672 1065.42 233.604 1066.33 233.171C1067.25 232.75 1092.8 221.038 1110.29 214.314C1110.51 214.243 1110.75 214.162 1111.01 214.075C1113.55 213.21 1117.41 211.903 1122.38 213.79L1122.43 213.808C1125.5 214.931 1129.29 219.682 1130.97 222.427C1131.33 223.034 1136.79 232.446 1141.25 242.003L1145.68 251.502Z" fill="#FFABAB"/>
</g>
<g clip-path="url(#clip10_197_86)">
<path d="M1234.91 655.665L1198.65 653.9C1196.57 653.798 1194.61 654.754 1193.4 656.456C1192.2 658.159 1191.99 660.272 1192.85 662.11L1207.05 692.536C1207.9 694.365 1209.65 695.564 1211.72 695.742C1212.8 695.835 1213.85 695.641 1214.8 695.2C1215.68 694.786 1216.46 694.166 1217.04 693.397L1239.11 664.737C1239.75 663.903 1240.15 662.92 1240.28 661.894C1240.4 660.868 1240.24 659.835 1239.81 658.906C1239.38 657.977 1238.7 657.185 1237.84 656.614C1236.98 656.044 1235.97 655.716 1234.91 655.665ZM1212.98 685.106L1202.37 662.367L1229.47 663.687L1212.98 685.106Z" fill="#FFABAB"/>
<path d="M1270.33 615.145L1270.3 615.09C1269.71 614.12 1264.36 605.55 1257.62 603.067C1249.78 600.102 1243.47 602.245 1240.43 603.277C1240.2 603.355 1239.97 603.432 1239.74 603.506L1239.5 603.591C1221.52 610.496 1195.14 622.6 1194.88 622.722L1194.86 622.732L1194.83 622.744C1194.57 622.868 1168.35 635.306 1151.35 644.725L1151.13 644.856C1150.95 644.967 1150.76 645.086 1150.55 645.216C1147.84 646.866 1142.21 650.301 1139.52 658.414C1137.29 665.025 1140.18 674.507 1140.51 675.567L1140.56 675.704C1140.72 676.147 1144.51 686.703 1149.25 696.864L1153.69 706.363C1158.43 716.524 1164.08 726.212 1164.32 726.62L1164.35 726.68C1164.94 727.633 1170.21 736.038 1176.93 738.533C1184.36 741.462 1190.99 739.218 1194.55 738.011C1195.11 737.82 1195.6 737.655 1195.94 737.562L1196.26 737.46C1206.75 733.691 1238.48 719.435 1239.82 718.83L1239.87 718.812L1239.91 718.792C1240.17 718.669 1266.39 706.231 1283.23 696.885L1283.45 696.755C1283.66 696.624 1283.89 696.484 1284.15 696.33C1286.85 694.714 1292.48 691.353 1295.13 683.35C1297.36 676.738 1294.48 667.255 1294.14 666.197L1294.09 666.06C1293.93 665.616 1290.14 655.061 1285.4 644.899L1280.97 635.401C1276.22 625.24 1270.57 615.553 1270.33 615.145ZM1277.68 648.502C1282.07 657.907 1285.74 667.99 1286.07 668.917C1286.89 671.519 1288.18 677.767 1287.09 680.988C1285.44 685.997 1282.23 687.914 1279.88 689.313C1279.62 689.468 1279.36 689.625 1279.1 689.785C1262.81 698.818 1237.59 710.806 1236.43 711.357C1235.11 711.948 1203.84 725.985 1193.68 729.661C1193.15 729.815 1192.58 730.007 1191.98 730.211C1188.95 731.238 1184.79 732.645 1180.25 730.843L1180.15 730.803C1177.08 729.68 1173.33 725.021 1171.68 722.333C1171.3 721.69 1165.85 712.297 1161.4 702.761L1156.97 693.262C1152.59 683.868 1148.92 673.796 1148.58 672.85C1147.63 669.783 1146.52 663.864 1147.56 660.776C1149.27 655.615 1152.65 653.555 1154.88 652.192C1155.09 652.062 1155.29 651.941 1155.48 651.826C1172.01 642.672 1197.42 630.604 1198.33 630.171C1199.25 629.75 1224.8 618.038 1242.29 611.314C1242.51 611.243 1242.75 611.162 1243.01 611.075C1245.55 610.21 1249.41 608.903 1254.38 610.79L1254.43 610.808C1257.5 611.931 1261.29 616.682 1262.97 619.427C1263.33 620.034 1268.79 629.446 1273.25 639.003L1277.68 648.502Z" fill="#FFABAB"/>
</g>
<g clip-path="url(#clip11_197_86)">
<path d="M720.913 896.665L684.654 894.9C682.569 894.798 680.607 895.754 679.404 897.456C678.2 899.159 677.994 901.272 678.852 903.11L693.05 933.536C693.904 935.365 695.648 936.564 697.716 936.742C698.796 936.835 699.854 936.641 700.8 936.2C701.684 935.786 702.455 935.166 703.044 934.397L725.106 905.737C725.749 904.903 726.154 903.92 726.278 902.894C726.402 901.868 726.241 900.835 725.811 899.906C725.382 898.977 724.701 898.185 723.839 897.614C722.976 897.044 721.966 896.716 720.913 896.665ZM698.983 926.106L688.371 903.367L715.471 904.687L698.983 926.106Z" fill="#FFABAB"/>
<path d="M756.333 856.145L756.3 856.09C755.712 855.12 750.361 846.55 743.619 844.067C735.783 841.102 729.467 843.245 726.431 844.277C726.202 844.355 725.972 844.432 725.741 844.506L725.5 844.591C707.519 851.496 681.144 863.6 680.88 863.722L680.857 863.732L680.834 863.744C680.571 863.868 654.352 876.306 637.352 885.725L637.131 885.856C636.955 885.967 636.759 886.086 636.547 886.216C633.839 887.866 628.205 891.301 625.52 899.414C623.288 906.025 626.176 915.507 626.513 916.567L626.558 916.704C626.717 917.147 630.511 927.703 635.253 937.864L639.685 947.363C644.427 957.524 650.08 967.212 650.318 967.62L650.355 967.68C650.935 968.633 656.208 977.038 662.929 979.533C670.364 982.462 676.988 980.218 680.551 979.011C681.114 978.82 681.598 978.655 681.938 978.562L682.261 978.46C692.745 974.691 724.48 960.435 725.825 959.83L725.865 959.812L725.905 959.792C726.168 959.669 752.386 947.231 769.229 937.885L769.449 937.755C769.656 937.624 769.891 937.484 770.15 937.33C772.854 935.714 778.483 932.353 781.13 924.35C783.362 917.738 780.475 908.255 780.138 907.197L780.092 907.06C779.933 906.616 776.141 896.061 771.399 885.899L766.966 876.401C762.224 866.24 756.572 856.553 756.333 856.145ZM763.679 889.502C768.068 898.907 771.736 908.99 772.07 909.917C772.886 912.519 774.18 918.767 773.092 921.988C771.435 926.997 768.227 928.914 765.884 930.313C765.622 930.468 765.362 930.625 765.104 930.785C748.809 939.818 723.589 951.806 722.427 952.357C721.111 952.948 689.836 966.985 679.682 970.661C679.145 970.815 678.578 971.007 677.98 971.211C674.946 972.238 670.794 973.645 666.255 971.843L666.149 971.803C663.079 970.68 659.331 966.021 657.676 963.333C657.301 962.69 651.854 953.297 647.404 943.761L642.971 934.262C638.588 924.868 634.923 914.796 634.582 913.85C633.627 910.783 632.516 904.864 633.558 901.776C635.266 896.615 638.646 894.555 640.881 893.192C641.094 893.062 641.293 892.941 641.476 892.826C658.012 883.672 683.416 871.604 684.328 871.171C685.245 870.75 710.804 859.038 728.29 852.314C728.51 852.243 728.749 852.162 729.005 852.075C731.554 851.21 735.407 849.903 740.384 851.79L740.43 851.808C743.5 852.931 747.291 857.682 748.972 860.427C749.327 861.034 754.787 870.446 759.247 880.003L763.679 889.502Z" fill="#FFABAB"/>
</g>
<g clip-path="url(#clip12_197_86)">
<path d="M1236.91 977.665L1200.65 975.9C1198.57 975.798 1196.61 976.754 1195.4 978.456C1194.2 980.159 1193.99 982.272 1194.85 984.11L1209.05 1014.54C1209.9 1016.37 1211.65 1017.56 1213.72 1017.74C1214.8 1017.84 1215.85 1017.64 1216.8 1017.2C1217.68 1016.79 1218.46 1016.17 1219.04 1015.4L1241.11 986.737C1241.75 985.903 1242.15 984.92 1242.28 983.894C1242.4 982.868 1242.24 981.835 1241.81 980.906C1241.38 979.977 1240.7 979.185 1239.84 978.614C1238.98 978.044 1237.97 977.716 1236.91 977.665ZM1214.98 1007.11L1204.37 984.367L1231.47 985.687L1214.98 1007.11Z" fill="#FFABAB"/>
<path d="M1272.33 937.145L1272.3 937.09C1271.71 936.12 1266.36 927.55 1259.62 925.067C1251.78 922.102 1245.47 924.245 1242.43 925.277C1242.2 925.355 1241.97 925.432 1241.74 925.506L1241.5 925.591C1223.52 932.496 1197.14 944.6 1196.88 944.722L1196.86 944.732L1196.83 944.744C1196.57 944.868 1170.35 957.306 1153.35 966.725L1153.13 966.856C1152.95 966.967 1152.76 967.086 1152.55 967.216C1149.84 968.866 1144.21 972.301 1141.52 980.414C1139.29 987.025 1142.18 996.507 1142.51 997.567L1142.56 997.704C1142.72 998.147 1146.51 1008.7 1151.25 1018.86L1155.69 1028.36C1160.43 1038.52 1166.08 1048.21 1166.32 1048.62L1166.35 1048.68C1166.94 1049.63 1172.21 1058.04 1178.93 1060.53C1186.36 1063.46 1192.99 1061.22 1196.55 1060.01C1197.11 1059.82 1197.6 1059.66 1197.94 1059.56L1198.26 1059.46C1208.75 1055.69 1240.48 1041.44 1241.82 1040.83L1241.87 1040.81L1241.91 1040.79C1242.17 1040.67 1268.39 1028.23 1285.23 1018.89L1285.45 1018.75C1285.66 1018.62 1285.89 1018.48 1286.15 1018.33C1288.85 1016.71 1294.48 1013.35 1297.13 1005.35C1299.36 998.738 1296.48 989.255 1296.14 988.197L1296.09 988.06C1295.93 987.616 1292.14 977.061 1287.4 966.899L1282.97 957.401C1278.22 947.24 1272.57 937.553 1272.33 937.145ZM1279.68 970.502C1284.07 979.907 1287.74 989.99 1288.07 990.917C1288.89 993.519 1290.18 999.767 1289.09 1002.99C1287.44 1008 1284.23 1009.91 1281.88 1011.31C1281.62 1011.47 1281.36 1011.63 1281.1 1011.79C1264.81 1020.82 1239.59 1032.81 1238.43 1033.36C1237.11 1033.95 1205.84 1047.98 1195.68 1051.66C1195.15 1051.82 1194.58 1052.01 1193.98 1052.21C1190.95 1053.24 1186.79 1054.65 1182.25 1052.84L1182.15 1052.8C1179.08 1051.68 1175.33 1047.02 1173.68 1044.33C1173.3 1043.69 1167.85 1034.3 1163.4 1024.76L1158.97 1015.26C1154.59 1005.87 1150.92 995.796 1150.58 994.85C1149.63 991.783 1148.52 985.864 1149.56 982.776C1151.27 977.615 1154.65 975.555 1156.88 974.192C1157.09 974.062 1157.29 973.941 1157.48 973.826C1174.01 964.672 1199.42 952.604 1200.33 952.171C1201.25 951.75 1226.8 940.038 1244.29 933.314C1244.51 933.243 1244.75 933.162 1245.01 933.075C1247.55 932.21 1251.41 930.903 1256.38 932.79L1256.43 932.808C1259.5 933.931 1263.29 938.682 1264.97 941.427C1265.33 942.034 1270.79 951.446 1275.25 961.003L1279.68 970.502Z" fill="#FFABAB"/>
</g>
<g clip-path="url(#clip13_197_86)">
<path d="M1675.91 813.665L1639.65 811.9C1637.57 811.798 1635.61 812.754 1634.4 814.456C1633.2 816.159 1632.99 818.272 1633.85 820.11L1648.05 850.536C1648.9 852.365 1650.65 853.564 1652.72 853.742C1653.8 853.835 1654.85 853.641 1655.8 853.2C1656.68 852.786 1657.46 852.166 1658.04 851.397L1680.11 822.737C1680.75 821.903 1681.15 820.92 1681.28 819.894C1681.4 818.868 1681.24 817.835 1680.81 816.906C1680.38 815.977 1679.7 815.185 1678.84 814.614C1677.98 814.044 1676.97 813.716 1675.91 813.665ZM1653.98 843.106L1643.37 820.367L1670.47 821.687L1653.98 843.106Z" fill="#FFABAB"/>
<path d="M1711.33 773.145L1711.3 773.09C1710.71 772.12 1705.36 763.55 1698.62 761.067C1690.78 758.102 1684.47 760.245 1681.43 761.277C1681.2 761.355 1680.97 761.432 1680.74 761.506L1680.5 761.591C1662.52 768.496 1636.14 780.6 1635.88 780.722L1635.86 780.732L1635.83 780.744C1635.57 780.868 1609.35 793.306 1592.35 802.725L1592.13 802.856C1591.95 802.967 1591.76 803.086 1591.55 803.216C1588.84 804.866 1583.21 808.301 1580.52 816.414C1578.29 823.025 1581.18 832.507 1581.51 833.567L1581.56 833.704C1581.72 834.147 1585.51 844.703 1590.25 854.864L1594.69 864.363C1599.43 874.524 1605.08 884.212 1605.32 884.62L1605.35 884.68C1605.94 885.633 1611.21 894.038 1617.93 896.533C1625.36 899.462 1631.99 897.218 1635.55 896.011C1636.11 895.82 1636.6 895.655 1636.94 895.562L1637.26 895.46C1647.75 891.691 1679.48 877.435 1680.82 876.83L1680.87 876.812L1680.91 876.792C1681.17 876.669 1707.39 864.231 1724.23 854.885L1724.45 854.755C1724.66 854.624 1724.89 854.484 1725.15 854.33C1727.85 852.714 1733.48 849.353 1736.13 841.35C1738.36 834.738 1735.48 825.255 1735.14 824.197L1735.09 824.06C1734.93 823.616 1731.14 813.061 1726.4 802.899L1721.97 793.401C1717.22 783.24 1711.57 773.553 1711.33 773.145ZM1718.68 806.502C1723.07 815.907 1726.74 825.99 1727.07 826.917C1727.89 829.519 1729.18 835.767 1728.09 838.988C1726.44 843.997 1723.23 845.914 1720.88 847.313C1720.62 847.468 1720.36 847.625 1720.1 847.785C1703.81 856.818 1678.59 868.806 1677.43 869.357C1676.11 869.948 1644.84 883.985 1634.68 887.661C1634.15 887.815 1633.58 888.007 1632.98 888.211C1629.95 889.238 1625.79 890.645 1621.25 888.843L1621.15 888.803C1618.08 887.68 1614.33 883.021 1612.68 880.333C1612.3 879.69 1606.85 870.297 1602.4 860.761L1597.97 851.262C1593.59 841.868 1589.92 831.796 1589.58 830.85C1588.63 827.783 1587.52 821.864 1588.56 818.776C1590.27 813.615 1593.65 811.555 1595.88 810.192C1596.09 810.062 1596.29 809.941 1596.48 809.826C1613.01 800.672 1638.42 788.604 1639.33 788.171C1640.25 787.75 1665.8 776.038 1683.29 769.314C1683.51 769.243 1683.75 769.162 1684.01 769.075C1686.55 768.21 1690.41 766.903 1695.38 768.79L1695.43 768.808C1698.5 769.931 1702.29 774.682 1703.97 777.427C1704.33 778.034 1709.79 787.446 1714.25 797.003L1718.68 806.502Z" fill="#FFABAB"/>
</g>
<g clip-path="url(#clip14_197_86)">
<path d="M1616.91 81.6653L1580.65 79.8996C1578.57 79.798 1576.61 80.7537 1575.4 82.4554C1574.2 84.1586 1573.99 86.2716 1574.85 88.1098L1589.05 118.536C1589.9 120.365 1591.65 121.564 1593.72 121.742C1594.8 121.835 1595.85 121.641 1596.8 121.2C1597.68 120.785 1598.46 120.166 1599.04 119.397L1621.11 90.7372C1621.75 89.9026 1622.15 88.9202 1622.28 87.8938C1622.4 86.8675 1622.24 85.8353 1621.81 84.9063C1621.38 83.9767 1620.7 83.1848 1619.84 82.6143C1618.98 82.0438 1617.97 81.7159 1616.91 81.6653ZM1594.98 111.106L1584.37 88.3665L1611.47 89.6865L1594.98 111.106Z" fill="#FFABAB"/>
<path d="M1652.33 41.1451L1652.3 41.0899C1651.71 40.1202 1646.36 31.5502 1639.62 29.0667C1631.78 26.1023 1625.47 28.2452 1622.43 29.2767C1622.2 29.3553 1621.97 29.4319 1621.74 29.5063L1621.5 29.5907C1603.52 36.4957 1577.14 48.6004 1576.88 48.7222L1576.86 48.732L1576.83 48.7438C1576.57 48.8676 1550.35 61.3055 1533.35 70.7245L1533.13 70.8558C1532.95 70.9674 1532.76 71.0859 1532.55 71.2157C1529.84 72.8657 1524.21 76.3007 1521.52 84.4138C1519.29 91.0246 1522.18 100.507 1522.51 101.567L1522.56 101.704C1522.72 102.147 1526.51 112.703 1531.25 122.864L1535.69 132.363C1540.43 142.524 1546.08 152.212 1546.32 152.62L1546.35 152.68C1546.94 153.633 1552.21 162.038 1558.93 164.533C1566.36 167.462 1572.99 165.218 1576.55 164.011C1577.11 163.82 1577.6 163.655 1577.94 163.562L1578.26 163.46C1588.75 159.691 1620.48 145.435 1621.82 144.83L1621.87 144.812L1621.91 144.792C1622.17 144.669 1648.39 132.231 1665.23 122.885L1665.45 122.755C1665.66 122.624 1665.89 122.484 1666.15 122.33C1668.85 120.714 1674.48 117.353 1677.13 109.35C1679.36 102.738 1676.48 93.2552 1676.14 92.1968L1676.09 92.0601C1675.93 91.6156 1672.14 81.0606 1667.4 70.8994L1662.97 61.4007C1658.22 51.2397 1652.57 41.5529 1652.33 41.1451ZM1659.68 74.5017C1664.07 83.9067 1667.74 93.99 1668.07 94.9166C1668.89 97.519 1670.18 103.767 1669.09 106.988C1667.44 111.997 1664.23 113.914 1661.88 115.313C1661.62 115.468 1661.36 115.625 1661.1 115.785C1644.81 124.818 1619.59 136.806 1618.43 137.357C1617.11 137.948 1585.84 151.985 1575.68 155.661C1575.15 155.815 1574.58 156.007 1573.98 156.211C1570.95 157.238 1566.79 158.645 1562.25 156.843L1562.15 156.803C1559.08 155.68 1555.33 151.021 1553.68 148.333C1553.3 147.69 1547.85 138.297 1543.4 128.761L1538.97 119.262C1534.59 109.868 1530.92 99.796 1530.58 98.8501C1529.63 95.7825 1528.52 89.8636 1529.56 86.7755C1531.27 81.6148 1534.65 79.5545 1536.88 78.1919C1537.09 78.0615 1537.29 77.9405 1537.48 77.8257C1554.01 68.6725 1579.42 56.6044 1580.33 56.1709C1581.25 55.7499 1606.8 44.0376 1624.29 37.3145C1624.51 37.2428 1624.75 37.1618 1625.01 37.0752C1627.55 36.2099 1631.41 34.9026 1636.38 36.7904L1636.43 36.808C1639.5 37.9313 1643.29 42.6816 1644.97 45.4269C1645.33 46.0341 1650.79 55.446 1655.25 65.003L1659.68 74.5017Z" fill="#FFABAB"/>
</g>
<g clip-path="url(#clip15_197_86)">
<path d="M393.913 2.66531L357.654 0.899572C355.569 0.797955 353.607 1.75372 352.404 3.45544C351.2 5.15863 350.994 7.27159 351.852 9.10975L366.05 39.5357C366.904 41.3652 368.648 42.5644 370.716 42.7422C371.796 42.835 372.854 42.6408 373.8 42.1996C374.684 41.7854 375.455 41.1658 376.044 40.3965L398.106 11.7372C398.749 10.9026 399.154 9.92019 399.278 8.89385C399.402 7.86751 399.241 6.83531 398.811 5.90625C398.382 4.9767 397.701 4.1848 396.839 3.6143C395.976 3.0438 394.966 2.71592 393.913 2.66531ZM371.983 32.1063L361.371 9.36649L388.471 10.6865L371.983 32.1063Z" fill="#FFABAB"/>
<path d="M429.333 -37.8549L429.3 -37.9101C428.712 -38.8798 423.361 -47.4498 416.619 -49.9333C408.783 -52.8977 402.467 -50.7548 399.431 -49.7233C399.202 -49.6447 398.972 -49.5681 398.741 -49.4937L398.5 -49.4093C380.519 -42.5043 354.144 -30.3996 353.88 -30.2778L353.857 -30.268L353.834 -30.2562C353.571 -30.1324 327.352 -17.6945 310.352 -8.27549L310.131 -8.14416C309.955 -8.03259 309.759 -7.91412 309.547 -7.78427C306.839 -6.13431 301.205 -2.69932 298.52 5.4138C296.288 12.0246 299.176 21.5071 299.513 22.567L299.558 22.7036C299.717 23.1472 303.511 33.7027 308.253 43.8639L312.685 53.3626C317.427 63.524 323.08 73.2118 323.318 73.6197L323.355 73.6801C323.935 74.6334 329.208 83.0375 335.929 85.5326C343.364 88.4625 349.988 86.2183 353.551 85.0109C354.114 84.82 354.598 84.6551 354.938 84.5617L355.261 84.4602C365.745 80.6907 397.48 66.435 398.825 65.83L398.865 65.8122L398.905 65.7924C399.168 65.6686 425.386 53.2312 442.229 43.8853L442.449 43.755C442.656 43.6239 442.891 43.4835 443.15 43.3297C445.854 41.7139 451.483 38.3525 454.13 30.3497C456.362 23.7384 453.475 14.2552 453.138 13.1968L453.092 13.0601C452.933 12.6156 449.141 2.06061 444.399 -8.10058L439.966 -17.5993C435.224 -27.7603 429.572 -37.4471 429.333 -37.8549ZM436.679 -4.49829C441.068 4.90671 444.736 14.99 445.07 15.9166C445.886 18.519 447.18 24.767 446.092 27.9883C444.435 32.9966 441.227 34.9137 438.884 36.3125C438.622 36.4676 438.362 36.6251 438.104 36.7851C421.809 45.818 396.589 57.8059 395.427 58.3568C394.111 58.9485 362.836 72.9848 352.682 76.6608C352.145 76.8154 351.578 77.0072 350.98 77.2105C347.946 78.2382 343.794 79.6453 339.255 77.8432L339.149 77.8029C336.079 76.6795 332.331 72.0212 330.676 69.333C330.301 68.6897 324.854 59.2974 320.404 49.7608L315.971 40.2621C311.588 30.868 307.923 20.796 307.582 19.8501C306.627 16.7825 305.516 10.8636 306.558 7.7755C308.266 2.61478 311.646 0.554506 313.881 -0.808139C314.094 -0.938466 314.293 -1.05948 314.476 -1.17429C331.012 -10.3275 356.416 -22.3956 357.328 -22.8291C358.245 -23.2501 383.804 -34.9624 401.29 -41.6855C401.51 -41.7572 401.749 -41.8382 402.005 -41.9248C404.554 -42.7901 408.407 -44.0974 413.384 -42.2096L413.43 -42.192C416.5 -41.0687 420.291 -36.3184 421.972 -33.5731C422.327 -32.9659 427.787 -23.554 432.247 -13.997L436.679 -4.49829Z" fill="#FFABAB"/>
</g>
<path d="M1126.33 -57.8551L1126.3 -57.9104C1125.71 -58.88 1120.36 -67.45 1113.62 -69.9335C1105.78 -72.898 1099.47 -70.7551 1096.43 -69.7236C1096.2 -69.6449 1095.97 -69.5684 1095.74 -69.4939L1095.5 -69.4095C1077.52 -62.5045 1051.14 -50.3998 1050.88 -50.278L1050.86 -50.2682L1050.83 -50.2564C1050.57 -50.1326 1024.35 -37.6947 1007.35 -28.2757L1007.13 -28.1444C1006.95 -28.0328 1006.76 -27.9144 1006.55 -27.7845C1003.84 -26.1346 998.205 -22.6996 995.52 -14.5864C993.288 -7.97561 996.176 1.50685 996.512 2.56676L996.558 2.70339C996.717 3.14696 1000.51 13.7024 1005.25 23.8636L1009.69 33.3624C1014.43 43.5238 1020.08 53.2116 1020.32 53.6194L1020.35 53.6799C1020.94 54.6332 1026.21 63.0373 1032.93 65.5324C1040.36 68.4622 1046.99 66.218 1050.55 65.0107C1051.11 64.8198 1051.6 64.6548 1051.94 64.5615L1052.26 64.46C1062.75 60.6905 1094.48 46.4348 1095.82 45.8298L1095.87 45.8119L1095.9 45.7922C1096.17 45.6684 1122.39 33.231 1139.23 23.8851L1139.45 23.7547C1139.66 23.6237 1139.89 23.4833 1140.15 23.3295C1142.85 21.7136 1148.48 18.3523 1151.13 10.3495C1153.36 3.73815 1150.48 -5.74503 1150.14 -6.80347L1150.09 -6.9401C1149.93 -7.38466 1146.14 -17.9396 1141.4 -28.1008L1136.97 -37.5995C1132.22 -47.7605 1126.57 -57.4473 1126.33 -57.8551ZM1133.68 -24.4985C1138.07 -15.0935 1141.74 -5.01029 1142.07 -4.08364C1142.89 -1.48126 1144.18 4.76674 1143.09 7.98803C1141.43 12.9963 1138.23 14.9134 1135.88 16.3123C1135.62 16.4674 1135.36 16.6249 1135.1 16.7849C1118.81 25.8177 1093.59 37.8057 1092.43 38.3565C1091.11 38.9482 1059.84 52.9846 1049.68 56.6606C1049.15 56.8151 1048.58 57.007 1047.98 57.2103C1044.95 58.238 1040.79 59.645 1036.25 57.8429L1036.15 57.8027C1033.08 56.6793 1029.33 52.0209 1027.68 49.3328C1027.3 48.6895 1021.85 39.2972 1017.4 29.7605L1012.97 20.2618C1008.59 10.8677 1004.92 0.795743 1004.58 -0.150097C1003.63 -3.21773 1002.52 -9.13661 1003.56 -12.2247C1005.27 -17.3855 1008.65 -19.4457 1010.88 -20.8084C1011.09 -20.9387 1011.29 -21.0597 1011.48 -21.1745C1028.01 -30.3278 1053.42 -42.3959 1054.33 -42.8293C1055.24 -43.2504 1080.8 -54.9627 1098.29 -61.6858C1098.51 -61.7575 1098.75 -61.8384 1099.01 -61.9251C1101.55 -62.7903 1105.41 -64.0976 1110.38 -62.2098L1110.43 -62.1922C1113.5 -61.069 1117.29 -56.3186 1118.97 -53.5734C1119.33 -52.9662 1124.79 -43.5542 1129.25 -33.9973L1133.68 -24.4985Z" fill="#FFABAB"/>
</g>
<defs>
<clipPath id="clip0_197_86">
<rect width="1920" height="1080" fill="white"/>
</clipPath>
<clipPath id="clip1_197_86">
<rect width="145.348" height="140.082" fill="white" transform="translate(125.815 286.965) rotate(-25.0158)"/>
</clipPath>
<clipPath id="clip2_197_86">
<rect width="145.348" height="140.082" fill="white" transform="translate(570 206.463) rotate(-25.0158)"/>
</clipPath>
<clipPath id="clip3_197_86">
<rect width="145.348" height="140.082" fill="white" transform="translate(302 528.463) rotate(-25.0158)"/>
</clipPath>
<clipPath id="clip4_197_86">
<rect width="145.348" height="140.082" fill="white" transform="translate(-92 610.463) rotate(-25.0158)"/>
</clipPath>
<clipPath id="clip5_197_86">
<rect width="145.348" height="140.082" fill="white" transform="translate(99 866.463) rotate(-25.0158)"/>
</clipPath>
<clipPath id="clip6_197_86">
<rect width="145.348" height="140.082" fill="white" transform="translate(702 592.463) rotate(-25.0158)"/>
</clipPath>
<clipPath id="clip7_197_86">
<rect width="145.348" height="140.082" fill="white" transform="translate(1381 386.463) rotate(-25.0158)"/>
</clipPath>
<clipPath id="clip8_197_86">
<rect width="145.348" height="140.082" fill="white" transform="translate(1761 526.463) rotate(-25.0158)"/>
</clipPath>
<clipPath id="clip9_197_86">
<rect width="145.348" height="140.082" fill="white" transform="translate(997 256.463) rotate(-25.0158)"/>
</clipPath>
<clipPath id="clip10_197_86">
<rect width="145.348" height="140.082" fill="white" transform="translate(1129 653.463) rotate(-25.0158)"/>
</clipPath>
<clipPath id="clip11_197_86">
<rect width="145.348" height="140.082" fill="white" transform="translate(615 894.463) rotate(-25.0158)"/>
</clipPath>
<clipPath id="clip12_197_86">
<rect width="145.348" height="140.082" fill="white" transform="translate(1131 975.463) rotate(-25.0158)"/>
</clipPath>
<clipPath id="clip13_197_86">
<rect width="145.348" height="140.082" fill="white" transform="translate(1570 811.463) rotate(-25.0158)"/>
</clipPath>
<clipPath id="clip14_197_86">
<rect width="145.348" height="140.082" fill="white" transform="translate(1511 79.4629) rotate(-25.0158)"/>
</clipPath>
<clipPath id="clip15_197_86">
<rect width="145.348" height="140.082" fill="white" transform="translate(288 0.462891) rotate(-25.0158)"/>
</clipPath>
</defs>
</svg>
